999
dxfrw 0.6.3
  0
SECTION
  2
HEADER
  9
$ACADVER
  1
AC1021
  9
$DWGCODEPAGE
  3
ANSI_1252
  9
$INSBASE
 10
0
 20
0
 30
0
  9
$EXTMIN
 10
-250
 20
-150
 30
0
  9
$EXTMAX
 10
232.2222222222246
 20
184.1335902454591
 30
0
  9
$LIMMIN
 10
0
 20
0
  9
$LIMMAX
 10
420
 20
297
  9
$ORTHOMODE
 70
    0
  9
$REGENMODE
 70
    1
  9
$FILLMODE
 70
    1
  9
$QTEXTMODE
 70
    0
  9
$MIRRTEXT
 70
    0
  9
$LTSCALE
 40
1
  9
$ATTMODE
 70
    0
  9
$TEXTSIZE
 40
2.5
  9
$TRACEWID
 40
15.68
  9
$TEXTSTYLE
  7
STANDARD
  9
$CLAYER
  8
dimensions
  9
$CELTYPE
  6
BYLAYER
  9
$CECOLOR
 62
  256
  9
$CELTSCALE
 40
1
  9
$DISPSILH
 70
    0
  9
$DIMSCALE
 40
2.5
  9
$DIMASZ
 40
2.5
  9
$DIMEXO
 40
0.625
  9
$DIMDLI
 40
3.75
  9
$DIMRND
 40
0
  9
$DIMDLE
 40
0
  9
$DIMEXE
 40
1.25
  9
$DIMTP
 40
0
  9
$DIMTM
 40
0
  9
$DIMTXT
 40
2.5
  9
$DIMCEN
 40
2.5
  9
$DIMTSZ
 40
0
  9
$DIMTOL
 70
    0
  9
$DIMLIM
 70
    0
  9
$DIMTIH
 70
    0
  9
$DIMTOH
 70
    0
  9
$DIMSE1
 70
    0
  9
$DIMSE2
 70
    0
  9
$DIMTAD
 70
    1
  9
$DIMZIN
 70
    8
  9
$DIMBLK
  1

  9
$DIMASO
 70
    1
  9
$DIMSHO
 70
    1
  9
$DIMPOST
  1

  9
$DIMAPOST
  1

  9
$DIMALT
 70
    0
  9
$DIMALTD
 70
    3
  9
$DIMALTF
 40
0.03937
  9
$DIMLFAC
 40
1
  9
$DIMTOFL
 70
    1
  9
$DIMTVP
 40
0
  9
$DIMTIX
 70
    0
  9
$DIMSOXD
 70
    0
  9
$DIMSAH
 70
    0
  9
$DIMBLK1
  1

  9
$DIMBLK2
  1

  9
$DIMSTYLE
  2
STANDARD
  9
$DIMCLRD
 70
    0
  9
$DIMCLRE
 70
    0
  9
$DIMCLRT
 70
    0
  9
$DIMTFAC
 40
1
  9
$DIMGAP
 40
0.625
  9
$DIMJUST
 70
    0
  9
$DIMSD1
 70
    0
  9
$DIMSD2
 70
    0
  9
$DIMTOLJ
 70
    0
  9
$DIMTZIN
 70
    8
  9
$DIMALTZ
 70
    0
  9
$DIMALTTZ
 70
    0
  9
$DIMUPT
 70
    0
  9
$DIMDEC
 70
    2
  9
$DIMTDEC
 70
    2
  9
$DIMALTU
 70
    2
  9
$DIMALTTD
 70
    3
  9
$DIMTXSTY
  7
standard
  9
$DIMAUNIT
 70
    0
  9
$DIMADEC
 70
    0
  9
$DIMALTRND
 40
0
  9
$DIMAZIN
 70
    0
  9
$DIMDSEP
 70
   44
  9
$DIMATFIT
 70
    3
  9
$DIMFRAC
 70
    0
  9
$DIMLDRBLK
  1
STANDARD
  9
$DIMLUNIT
 70
    2
  9
$DIMLWD
 70
   -2
  9
$DIMLWE
 70
   -2
  9
$DIMTMOVE
 70
    0
  9
$DIMFXL
 40
1
  9
$DIMFXLON
 70
    0
  9
$DIMJOGANG
 40
0.7854
  9
$DIMTFILL
 70
    0
  9
$DIMTFILLCLR
 70
    0
  9
$DIMARCSYM
 70
    0
  9
$DIMLTYPE
  6

  9
$DIMLTEX1
  6

  9
$DIMLTEX2
  6

  9
$LUNITS
 70
    2
  9
$LUPREC
 70
    4
  9
$SKETCHINC
 40
1
  9
$FILLETRAD
 40
0
  9
$AUNITS
 70
    0
  9
$AUPREC
 70
    2
  9
$MENU
  1
.
  9
$ELEVATION
 40
0
  9
$PELEVATION
 40
0
  9
$THICKNESS
 40
0
  9
$LIMCHECK
 70
    0
  9
$CHAMFERA
 40
0
  9
$CHAMFERB
 40
0
  9
$CHAMFERC
 40
0
  9
$CHAMFERD
 40
0
  9
$SKPOLY
 70
    0
  9
$USRTIMER
 70
    1
  9
$ANGBASE
 50
0
  9
$ANGDIR
 70
    0
  9
$PDMODE
 70
   34
  9
$PDSIZE
 40
0
  9
$PLINEWID
 40
0
  9
$SPLFRAME
 70
    0
  9
$SPLINETYPE
 70
    2
  9
$SPLINESEGS
 70
    8
  9
$HANDSEED
  5
20000
  9
$SURFTAB1
 70
    6
  9
$SURFTAB2
 70
    6
  9
$SURFTYPE
 70
    6
  9
$SURFU
 70
    6
  9
$SURFV
 70
    6
  9
$UCSBASE
  2

  9
$UCSNAME
  2

  9
$UCSORG
 10
0
 20
0
 30
0
  9
$UCSXDIR
 10
1
 20
0
 30
0
  9
$UCSYDIR
 10
0
 20
1
 30
0
  9
$UCSORTHOREF
  2

  9
$UCSORTHOVIEW
 70
    0
  9
$UCSORGTOP
 10
0
 20
0
 30
0
  9
$UCSORGBOTTOM
 10
0
 20
0
 30
0
  9
$UCSORGLEFT
 10
0
 20
0
 30
0
  9
$UCSORGRIGHT
 10
0
 20
0
 30
0
  9
$UCSORGFRONT
 10
0
 20
0
 30
0
  9
$UCSORGBACK
 10
0
 20
0
 30
0
  9
$PUCSBASE
  2

  9
$PUCSNAME
  2

  9
$PUCSORG
 10
0
 20
0
 30
0
  9
$PUCSXDIR
 10
1
 20
0
 30
0
  9
$PUCSYDIR
 10
0
 20
1
 30
0
  9
$PUCSORTHOREF
  2

  9
$PUCSORTHOVIEW
 70
    0
  9
$PUCSORGTOP
 10
0
 20
0
 30
0
  9
$PUCSORGBOTTOM
 10
0
 20
0
 30
0
  9
$PUCSORGLEFT
 10
0
 20
0
 30
0
  9
$PUCSORGRIGHT
 10
0
 20
0
 30
0
  9
$PUCSORGFRONT
 10
0
 20
0
 30
0
  9
$PUCSORGBACK
 10
0
 20
0
 30
0
  9
$USERI1
 70
    0
  9
$USERI2
 70
    0
  9
$USERI3
 70
    0
  9
$USERI4
 70
    0
  9
$USERI5
 70
    0
  9
$USERR1
 40
0
  9
$USERR2
 40
0
  9
$USERR3
 40
0
  9
$USERR4
 40
0
  9
$USERR5
 40
0
  9
$WORLDVIEW
 70
    1
  9
$SHADEDGE
 70
    3
  9
$SHADEDIF
 70
   70
  9
$TILEMODE
 70
    1
  9
$MAXACTVP
 70
   64
  9
$PINSBASE
 10
0
 20
0
 30
0
  9
$PLIMCHECK
 70
    0
  9
$PEXTMIN
 10
0
 20
0
 30
0
  9
$PEXTMAX
 10
0
 20
0
 30
0
  9
$GRIDMODE
 70
    1
  9
$SNAPSTYLE
 70
    0
  9
$GRIDUNIT
 10
0
 20
0
  9
$PLIMMIN
 10
0
 20
0
  9
$PLIMMAX
 10
210
 20
297
  9
$UNITMODE
 70
    0
  9
$VISRETAIN
 70
    1
  9
$PLINEGEN
 70
    0
  9
$PSLTSCALE
 70
    1
  9
$TREEDEPTH
 70
 3020
  9
$CMLSTYLE
  2
Standard
  9
$CMLJUST
 70
    0
  9
$CMLSCALE
 40
20
  9
$PROXYGRAPHICS
 70
    1
  9
$MEASUREMENT
 70
    1
  9
$CELWEIGHT
370
   -1
  9
$ENDCAPS
280
    0
  9
$JOINSTYLE
280
    0
  9
$LWDISPLAY
290
    0
  9
$INSUNITS
 70
    4
  9
$HYPERLINKBASE
  1

  9
$STYLESHEET
  1

  9
$XEDIT
290
    1
  9
$CEPSNTYPE
380
    0
  9
$PSTYLEMODE
290
    1
  9
$EXTNAMES
290
    1
  9
$PSVPSCALE
 40
1
  9
$OLESTARTUP
290
    0
  9
$SORTENTS
280
  127
  9
$INDEXCTL
280
    0
  9
$HIDETEXT
280
    1
  9
$XCLIPFRAME
290
    0
  9
$HALOGAP
280
    0
  9
$OBSCOLOR
 70
  257
  9
$OBSLTYPE
280
    0
  9
$INTERSECTIONDISPLAY
280
    0
  9
$INTERSECTIONCOLOR
 70
  257
  9
$DIMASSOC
280
    1
  9
$PROJECTNAME
  1

  9
$CAMERADISPLAY
290
    0
  9
$LENSLENGTH
 40
50
  9
$CAMERAHEIGHT
 40
0
  9
$STEPSPERSEC
 40
2
  9
$STEPSIZE
 40
50
  9
$3DDWFPREC
 40
2
  9
$PSOLWIDTH
 40
5
  9
$PSOLHEIGHT
 40
80
  9
$LOFTANG1
 40
1.570796326794897
  9
$LOFTANG2
 40
1.570796326794897
  9
$LOFTMAG1
 40
0
  9
$LOFTMAG2
 40
0
  9
$LOFTPARAM
 70
    7
  9
$LOFTNORMALS
280
    1
  9
$LATITUDE
 40
1
  9
$LONGITUDE
 40
1
  9
$NORTHDIRECTION
 40
0
  9
$TIMEZONE
 70
-8000
  9
$LIGHTGLYPHDISPLAY
280
    1
  9
$TILEMODELIGHTSYNCH
280
    1
  9
$SOLIDHIST
280
    1
  9
$SHOWHIST
280
    1
  9
$DWFFRAME
280
    2
  9
$DGNFRAME
280
    0
  9
$REALWORLDSCALE
290
    1
  9
$INTERFERECOLOR
 62
    1
  9
$CSHADOW
280
    0
  9
$SHADOWPLANELOCATION
 40
0
  0
ENDSEC
  0
SECTION
  2
CLASSES
  0
ENDSEC
  0
SECTION
  2
TABLES
  0
TABLE
  2
VPORT
  5
8
330
0
100
AcDbSymbolTable
 70
    1
  0
VPORT
  5
31
330
2
100
AcDbSymbolTableRecord
100
AcDbViewportTableRecord
  2
*ACTIVE
 70
    0
 10
0
 20
0
 11
1
 21
1
 12
246.0479736328168
 22
107.9559326171894
 13
0
 23
0
 14
10
 24
10
 15
10
 25
10
 16
0
 26
0
 36
1
 17
0
 27
0
 37
0
 40
613.4033203125108
 41
1.856965174129353
 42
50
 43
0
 44
0
 50
0
 51
0
 71
    0
 72
  100
 73
    1
 74
    3
 75
    0
 76
    1
 77
    0
 78
    0
281
    0
 65
    1
110
0
120
0
130
0
111
1
121
0
131
0
112
0
122
1
132
0
 79
    0
146
0
348
10020
 60
    7
 61
    5
292
1
282
    1
141
0
142
0
 63
  250
421
3358443
  0
ENDTAB
  0
TABLE
  2
LTYPE
  5
5
330
0
100
AcDbSymbolTable
 70
    4
  0
LTYPE
  5
14
330
5
100
AcDbSymbolTableRecord
100
AcDbLinetypeTableRecord
  2
ByBlock
 70
    0
  3

 72
   65
 73
    0
 40
0
  0
LTYPE
  5
15
330
5
100
AcDbSymbolTableRecord
100
AcDbLinetypeTableRecord
  2
ByLayer
 70
    0
  3

 72
   65
 73
    0
 40
0
  0
LTYPE
  5
16
330
5
100
AcDbSymbolTableRecord
100
AcDbLinetypeTableRecord
  2
Continuous
 70
    0
  3
Solid line
 72
   65
 73
    0
 40
0
  0
LTYPE
  5
32
330
5
100
AcDbSymbolTableRecord
100
AcDbLinetypeTableRecord
  2
DOT
 70
    0
  3
Dot . . . . . . . . . . . . . . . . . . . . . .
 72
   65
 73
    2
 40
6.35
 49
0
 74
    0
 49
-6.35
 74
    0
  0
LTYPE
  5
33
330
5
100
AcDbSymbolTableRecord
100
AcDbLinetypeTableRecord
  2
DOTTINY
 70
    0
  3
Dot (.15x) .....................................
 72
   65
 73
    2
 40
0.9525
 49
0
 74
    0
 49
-0.9525
 74
    0
  0
LTYPE
  5
34
330
5
100
AcDbSymbolTableRecord
100
AcDbLinetypeTableRecord
  2
DOT2
 70
    0
  3
Dot (.5x) .....................................
 72
   65
 73
    2
 40
3.175
 49
0
 74
    0
 49
-3.175
 74
    0
  0
LTYPE
  5
35
330
5
100
AcDbSymbolTableRecord
100
AcDbLinetypeTableRecord
  2
DOTX2
 70
    0
  3
Dot (2x) .  .  .  .  .  .  .  .  .  .  .  .  .
 72
   65
 73
    2
 40
12.7
 49
0
 74
    0
 49
-12.7
 74
    0
  0
LTYPE
  5
36
330
5
100
AcDbSymbolTableRecord
100
AcDbLinetypeTableRecord
  2
DASHED
 70
    0
  3
Dashed _ _ _ _ _ _ _ _ _ _ _ _ _ _ _ _ _
 72
   65
 73
    2
 40
19.05
 49
12.7
 74
    0
 49
-6.35
 74
    0
  0
LTYPE
  5
37
330
5
100
AcDbSymbolTableRecord
100
AcDbLinetypeTableRecord
  2
DASHEDTINY
 70
    0
  3
Dashed (.15x) _ _ _ _ _ _ _ _ _ _ _ _ _ _ _ _ _
 72
   65
 73
    2
 40
2.8575
 49
1.905
 74
    0
 49
-0.9525
 74
    0
  0
LTYPE
  5
38
330
5
100
AcDbSymbolTableRecord
100
AcDbLinetypeTableRecord
  2
DASHED2
 70
    0
  3
Dashed (.5x) _ _ _ _ _ _ _ _ _ _ _ _ _ _ _ _ _
 72
   65
 73
    2
 40
9.524999999999999
 49
6.35
 74
    0
 49
-3.175
 74
    0
  0
LTYPE
  5
39
330
5
100
AcDbSymbolTableRecord
100
AcDbLinetypeTableRecord
  2
DASHEDX2
 70
    0
  3
Dashed (2x) ____  ____  ____  ____  ____  ___
 72
   65
 73
    2
 40
38.09999999999999
 49
25.4
 74
    0
 49
-12.7
 74
    0
  0
LTYPE
  5
3A
330
5
100
AcDbSymbolTableRecord
100
AcDbLinetypeTableRecord
  2
DASHDOT
 70
    0
  3
Dash dot __ . __ . __ . __ . __ . __ . __ . __
 72
   65
 73
    4
 40
25.4
 49
12.7
 74
    0
 49
-6.35
 74
    0
 49
0
 74
    0
 49
-6.35
 74
    0
  0
LTYPE
  5
3B
330
5
100
AcDbSymbolTableRecord
100
AcDbLinetypeTableRecord
  2
DASHDOTTINY
 70
    0
  3
Dash dot (.15x) _._._._._._._._._._._._._._._.
 72
   65
 73
    4
 40
3.81
 49
1.905
 74
    0
 49
-0.9525
 74
    0
 49
0
 74
    0
 49
-0.9525
 74
    0
  0
LTYPE
  5
3C
330
5
100
AcDbSymbolTableRecord
100
AcDbLinetypeTableRecord
  2
DASHDOT2
 70
    0
  3
Dash dot (.5x) _._._._._._._._._._._._._._._.
 72
   65
 73
    4
 40
12.7
 49
6.35
 74
    0
 49
-3.175
 74
    0
 49
0
 74
    0
 49
-3.175
 74
    0
  0
LTYPE
  5
3D
330
5
100
AcDbSymbolTableRecord
100
AcDbLinetypeTableRecord
  2
DASHDOTX2
 70
    0
  3
Dash dot (2x) ____  .  ____  .  ____  .  ___
 72
   65
 73
    4
 40
50.8
 49
25.4
 74
    0
 49
-12.7
 74
    0
 49
0
 74
    0
 49
-12.7
 74
    0
  0
LTYPE
  5
3E
330
5
100
AcDbSymbolTableRecord
100
AcDbLinetypeTableRecord
  2
DIVIDE
 70
    0
  3
Divide ____ . . ____ . . ____ . . ____ . . ____
 72
   65
 73
    6
 40
31.75
 49
12.7
 74
    0
 49
-6.35
 74
    0
 49
0
 74
    0
 49
-6.35
 74
    0
 49
0
 74
    0
 49
-6.35
 74
    0
  0
LTYPE
  5
3F
330
5
100
AcDbSymbolTableRecord
100
AcDbLinetypeTableRecord
  2
DIVIDETINY
 70
    0
  3
Divide (.15x) __..__..__..__..__..__..__..__.._
 72
   65
 73
    6
 40
4.7625
 49
1.905
 74
    0
 49
-0.9525
 74
    0
 49
0
 74
    0
 49
-0.9525
 74
    0
 49
0
 74
    0
 49
-0.9525
 74
    0
  0
LTYPE
  5
40
330
5
100
AcDbSymbolTableRecord
100
AcDbLinetypeTableRecord
  2
DIVIDE2
 70
    0
  3
Divide (.5x) __..__..__..__..__..__..__..__.._
 72
   65
 73
    6
 40
15.875
 49
6.35
 74
    0
 49
-3.175
 74
    0
 49
0
 74
    0
 49
-3.175
 74
    0
 49
0
 74
    0
 49
-3.175
 74
    0
  0
LTYPE
  5
41
330
5
100
AcDbSymbolTableRecord
100
AcDbLinetypeTableRecord
  2
DIVIDEX2
 70
    0
  3
Divide (2x) ________  .  .  ________  .  .  _
 72
   65
 73
    6
 40
63.5
 49
25.4
 74
    0
 49
-12.7
 74
    0
 49
0
 74
    0
 49
-12.7
 74
    0
 49
0
 74
    0
 49
-12.7
 74
    0
  0
LTYPE
  5
42
330
5
100
AcDbSymbolTableRecord
100
AcDbLinetypeTableRecord
  2
BORDER
 70
    0
  3
Border __ __ . __ __ . __ __ . __ __ . __ __ .
 72
   65
 73
    6
 40
44.45
 49
12.7
 74
    0
 49
-6.35
 74
    0
 49
12.7
 74
    0
 49
-6.35
 74
    0
 49
0
 74
    0
 49
-6.35
 74
    0
  0
LTYPE
  5
43
330
5
100
AcDbSymbolTableRecord
100
AcDbLinetypeTableRecord
  2
BORDERTINY
 70
    0
  3
Border (.15x) __.__.__.__.__.__.__.__.__.__.__.
 72
   65
 73
    6
 40
6.6675
 49
1.905
 74
    0
 49
-0.9525
 74
    0
 49
1.905
 74
    0
 49
-0.9525
 74
    0
 49
0
 74
    0
 49
-0.9525
 74
    0
  0
LTYPE
  5
44
330
5
100
AcDbSymbolTableRecord
100
AcDbLinetypeTableRecord
  2
BORDER2
 70
    0
  3
Border (.5x) __.__.__.__.__.__.__.__.__.__.__.
 72
   65
 73
    6
 40
22.225
 49
6.35
 74
    0
 49
-3.175
 74
    0
 49
6.35
 74
    0
 49
-3.175
 74
    0
 49
0
 74
    0
 49
-3.175
 74
    0
  0
LTYPE
  5
45
330
5
100
AcDbSymbolTableRecord
100
AcDbLinetypeTableRecord
  2
BORDERX2
 70
    0
  3
Border (2x) ____  ____  .  ____  ____  .  ___
 72
   65
 73
    6
 40
88.89999999999999
 49
25.4
 74
    0
 49
-12.7
 74
    0
 49
25.4
 74
    0
 49
-12.7
 74
    0
 49
0
 74
    0
 49
-12.7
 74
    0
  0
LTYPE
  5
46
330
5
100
AcDbSymbolTableRecord
100
AcDbLinetypeTableRecord
  2
CENTER
 70
    0
  3
Center ____ _ ____ _ ____ _ ____ _ ____ _ ____
 72
   65
 73
    4
 40
50.8
 49
31.75
 74
    0
 49
-6.35
 74
    0
 49
6.35
 74
    0
 49
-6.35
 74
    0
  0
LTYPE
  5
47
330
5
100
AcDbSymbolTableRecord
100
AcDbLinetypeTableRecord
  2
CENTERTINY
 70
    0
  3
Center (.15x) ___ _ ___ _ ___ _ ___ _ ___ _ ___
 72
   65
 73
    4
 40
7.619999999999999
 49
4.7625
 74
    0
 49
-0.9525
 74
    0
 49
0.9525
 74
    0
 49
-0.9525
 74
    0
  0
LTYPE
  5
48
330
5
100
AcDbSymbolTableRecord
100
AcDbLinetypeTableRecord
  2
CENTER2
 70
    0
  3
Center (.5x) ___ _ ___ _ ___ _ ___ _ ___ _ ___
 72
   65
 73
    4
 40
28.575
 49
19.05
 74
    0
 49
-3.175
 74
    0
 49
3.175
 74
    0
 49
-3.175
 74
    0
  0
LTYPE
  5
49
330
5
100
AcDbSymbolTableRecord
100
AcDbLinetypeTableRecord
  2
CENTERX2
 70
    0
  3
Center (2x) ________  __  ________  __  _____
 72
   65
 73
    4
 40
101.6
 49
63.5
 74
    0
 49
-12.7
 74
    0
 49
12.7
 74
    0
 49
-12.7
 74
    0
  0
ENDTAB
  0
TABLE
  2
LAYER
  5
2
330
0
100
AcDbSymbolTable
 70
    1
  0
LAYER
  5
10
330
2
100
AcDbSymbolTableRecord
100
AcDbLayerTableRecord
  2
0
 70
    5
 62
    7
  6
CONTINUOUS
370
    0
390
F
  0
LAYER
  5
4A
330
2
100
AcDbSymbolTableRecord
100
AcDbLayerTableRecord
  2
auxiliary
 70
    0
 62
    7
  6
CONTINUOUS
370
    0
390
F
  0
LAYER
  5
4B
330
2
100
AcDbSymbolTableRecord
100
AcDbLayerTableRecord
  2
dimensions
 70
    0
 62
    7
  6
CONTINUOUS
370
    0
390
F
  0
LAYER
  5
4C
330
2
100
AcDbSymbolTableRecord
100
AcDbLayerTableRecord
  2
internal
 70
    0
 62
    7
  6
CONTINUOUS
370
    0
390
F
  0
LAYER
  5
4D
330
2
100
AcDbSymbolTableRecord
100
AcDbLayerTableRecord
  2
out-part
 70
    0
 62
    7
  6
CONTINUOUS
370
    0
390
F
  0
LAYER
  5
4E
330
2
100
AcDbSymbolTableRecord
100
AcDbLayerTableRecord
  2
out-part2
 70
    0
 62
    7
  6
CONTINUOUS
370
    0
390
F
  0
ENDTAB
  0
TABLE
  2
STYLE
  5
3
330
0
100
AcDbSymbolTable
 70
    3
  0
STYLE
  5
4F
330
2
100
AcDbSymbolTableRecord
100
AcDbTextStyleTableRecord
  2
standard
 70
    0
 40
0
 41
1
 50
0
 71
    0
 42
1
  3
standard
  4

  0
ENDTAB
  0
TABLE
  2
VIEW
  5
6
330
0
100
AcDbSymbolTable
 70
    0
  0
ENDTAB
  0
TABLE
  2
UCS
  5
7
330
0
100
AcDbSymbolTable
 70
    0
  0
ENDTAB
  0
TABLE
  2
APPID
  5
9
330
0
100
AcDbSymbolTable
 70
    1
  0
APPID
  5
12
330
9
100
AcDbSymbolTableRecord
100
AcDbRegAppTableRecord
  2
ACAD
 70
    0
  0
APPID
  5
50
330
9
100
AcDbSymbolTableRecord
100
AcDbRegAppTableRecord
  2
LibreCad
 70
    0
  0
ENDTAB
  0
TABLE
  2
DIMSTYLE
  5
A
330
0
100
AcDbSymbolTable
 70
    1
100
AcDbDimStyleTable
 71
    1
  0
DIMSTYLE
105
51
330
A
100
AcDbSymbolTableRecord
100
AcDbDimStyleTableRecord
  2
Standard
 70
    0
 40
2.5
 41
2.5
 42
0.625
 43
0.38
 44
1.25
 45
0
 46
0
 47
0
 48
0
 49
1
140
2.5
141
0.09
142
0
143
25.4
144
1
145
0
146
1
147
0.625
148
0
 71
    0
 72
    0
 73
    0
 74
    1
 75
    0
 76
    0
 77
    0
 78
    8
 79
    0
170
    0
171
    2
172
    0
173
    0
174
    0
175
    0
176
    0
177
    0
178
    0
179
    0
271
    2
272
    4
273
    2
274
    2
275
    0
276
    0
277
    2
278
   44
279
    0
280
    0
281
    0
282
    0
283
    1
284
    0
285
    0
286
    0
288
    0
289
    3
340
standard
341

371
   -2
372
   -2
  0
ENDTAB
  0
TABLE
  2
BLOCK_RECORD
  5
1
330
0
100
AcDbSymbolTable
 70
    2
  0
BLOCK_RECORD
  5
1F
330
1
100
AcDbSymbolTableRecord
100
AcDbBlockTableRecord
  2
*Model_Space
 70
    0
280
    1
281
    0
  0
BLOCK_RECORD
  5
1E
330
1
100
AcDbSymbolTableRecord
100
AcDbBlockTableRecord
  2
*Paper_Space
 70
    0
280
    1
281
    0
  0
BLOCK_RECORD
  5
52
330
1
100
AcDbSymbolTableRecord
100
AcDbBlockTableRecord
  2
*D1
 70
    0
280
    1
281
    0
  0
BLOCK_RECORD
  5
55
330
1
100
AcDbSymbolTableRecord
100
AcDbBlockTableRecord
  2
*D4
 70
    0
280
    1
281
    0
  0
BLOCK_RECORD
  5
58
330
1
100
AcDbSymbolTableRecord
100
AcDbBlockTableRecord
  2
*D2
 70
    0
280
    1
281
    0
  0
BLOCK_RECORD
  5
5B
330
1
100
AcDbSymbolTableRecord
100
AcDbBlockTableRecord
  2
*D5
 70
    0
280
    1
281
    0
  0
BLOCK_RECORD
  5
5E
330
1
100
AcDbSymbolTableRecord
100
AcDbBlockTableRecord
  2
*D6
 70
    0
280
    1
281
    0
  0
BLOCK_RECORD
  5
61
330
1
100
AcDbSymbolTableRecord
100
AcDbBlockTableRecord
  2
*D7
 70
    0
280
    1
281
    0
  0
BLOCK_RECORD
  5
64
330
1
100
AcDbSymbolTableRecord
100
AcDbBlockTableRecord
  2
*D3
 70
    0
280
    1
281
    0
  0
ENDTAB
  0
ENDSEC
  0
SECTION
  2
BLOCKS
  0
BLOCK
  5
20
330
1F
100
AcDbEntity
  8
0
100
AcDbBlockBegin
  2
*Model_Space
 70
    0
 10
0
 20
0
 30
0
  3
*Model_Space
  1

  0
ENDBLK
  5
21
330
1F
100
AcDbEntity
  8
0
100
AcDbBlockEnd
  0
BLOCK
  5
1C
330
1B
100
AcDbEntity
  8
0
100
AcDbBlockBegin
  2
*Paper_Space
 70
    0
 10
0
 20
0
 30
0
  3
*Paper_Space
  1

  0
ENDBLK
  5
1D
330
1F
100
AcDbEntity
  8
0
100
AcDbBlockEnd
  0
BLOCK
  5
53
330
52
100
AcDbEntity
  8
0
100
AcDbBlockBegin
  2
*D1
 70
    1
 10
0
 20
0
  3
*D1
  1

  0
LINE
  5
67
100
AcDbEntity
  8
auxiliary
  6
ByBlock
 62
    0
370
   -2
100
AcDbLine
 10
-70
 20
-100
 11
70
 21
-100
  0
SOLID
  5
68
100
AcDbEntity
  8
auxiliary
  6
ByBlock
 62
    0
370
   -2
100
AcDbTrace
 10
-70
 20
-100
 30
0
 11
-63.75
 21
-98.95928835556791
 31
0
 12
-63.75
 22
-101.0407116444321
 32
0
 13
-63.75
 23
-101.0407116444321
 33
0
  0
SOLID
  5
69
100
AcDbEntity
  8
auxiliary
  6
ByBlock
 62
    0
370
   -2
100
AcDbTrace
 10
70
 20
-100
 30
0
 11
63.75
 21
-101.0407116444321
 31
0
 12
63.75
 22
-98.95928835556789
 32
0
 13
63.75
 23
-98.95928835556789
 33
0
  0
MTEXT
  5
6A
100
AcDbEntity
  8
auxiliary
  6
CONTINUOUS
 62
    0
370
   -2
100
AcDbMText
 10
2.870265935501609e-16
 20
-95.3125
 30
0
 40
6.25
 41
11.80555555555556
 71
    5
 72
    1
  1
140
  7
standard
210
0
220
0
230
1
 50
0
 73
    2
 44
1
  0
LINE
  5
6B
100
AcDbEntity
  8
auxiliary
  6
ByBlock
 62
    0
370
   -2
100
AcDbLine
 10
-70
 20
-71.5625
 11
-70
 21
-103.125
  0
LINE
  5
6C
100
AcDbEntity
  8
auxiliary
  6
ByBlock
 62
    0
370
   -2
100
AcDbLine
 10
70
 20
-71.5625
 11
70
 21
-103.125
  0
ENDBLK
  5
54
330
52
100
AcDbEntity
  8
0
100
AcDbBlockEnd
  0
BLOCK
  5
56
330
55
100
AcDbEntity
  8
0
100
AcDbBlockBegin
  2
*D4
 70
    1
 10
0
 20
0
  3
*D4
  1

  0
LINE
  5
6D
100
AcDbEntity
  8
dimensions
  6
CONTINUOUS
 62
    7
370
    0
100
AcDbLine
 10
90
 20
80
 11
100
 21
90
  0
SOLID
  5
6E
100
AcDbEntity
  8
dimensions
  6
CONTINUOUS
 62
    7
370
    0
100
AcDbTrace
 10
90
 20
80
 30
0
 11
93.68352312137819
 21
85.15531164345366
 31
0
 12
95.15531164345367
 22
83.68352312137819
 32
0
 13
95.15531164345367
 23
83.68352312137819
 33
0
  0
LINE
  5
6F
100
AcDbEntity
  8
dimensions
  6
CONTINUOUS
 62
    7
370
    0
100
AcDbLine
 10
100
 20
90
 11
160
 21
30
  0
LINE
  5
70
100
AcDbEntity
  8
dimensions
  6
CONTINUOUS
 62
    7
370
    0
100
AcDbLine
 10
160
 20
30
 11
260
 21
30
  0
LINE
  5
71
100
AcDbEntity
  8
dimensions
  6
CONTINUOUS
 62
    7
370
    0
100
AcDbLine
 10
260
 20
30
 11
260
 21
30
  0
ENDBLK
  5
57
330
55
100
AcDbEntity
  8
0
100
AcDbBlockEnd
  0
BLOCK
  5
59
330
58
100
AcDbEntity
  8
0
100
AcDbBlockBegin
  2
*D2
 70
    1
 10
0
 20
0
  3
*D2
  1

  0
LINE
  5
72
100
AcDbEntity
  8
dimensions
  6
ByBlock
 62
    0
370
   -2
100
AcDbLine
 10
-13.74795939678169
 20
75.9576680879897
 11
37.35689494882227
 21
127.0625224335936
  0
LINE
  5
73
100
AcDbEntity
  8
dimensions
  6
ByBlock
 62
    0
370
   -2
100
AcDbLine
 10
56.96271872187301
 20
5.246989969334955
 11
108.067573067477
 21
56.35184431493886
  0
LINE
  5
74
100
AcDbEntity
  8
dimensions
  6
ByBlock
 62
    0
370
   -2
100
AcDbLine
 10
35.14718625761431
 20
124.8528137423856
 11
105.857864376269
 21
54.1421356237309
  0
SOLID
  5
75
100
AcDbEntity
  8
dimensions
  6
ByBlock
 62
    0
370
   -2
100
AcDbTrace
 10
35.14718625761431
 20
124.8528137423856
 30
0
 11
40.30249790106797
 21
121.1692906210075
 31
0
 12
38.83070937899249
 22
119.697502098932
 32
0
 13
38.83070937899249
 23
119.697502098932
 33
0
  0
SOLID
  5
76
100
AcDbEntity
  8
dimensions
  6
ByBlock
 62
    0
370
   -2
100
AcDbTrace
 10
105.857864376269
 20
54.1421356237309
 30
0
 11
100.7025527328153
 21
57.82565874510909
 31
0
 12
102.1743412548908
 22
59.29744726718457
 32
0
 13
102.1743412548908
 23
59.29744726718457
 33
0
  0
MTEXT
  5
77
100
AcDbEntity
  8
dimensions
  6
CONTINUOUS
 62
    0
370
   -2
100
AcDbMText
 10
73.81708835375365
 20
92.8120377198702
 30
0
 40
6.25
 41
11.11111111111111
 71
    5
 72
    1
  1
100
  7
standard
210
0
220
0
230
1
 50
314.9999999999999
 73
    2
 44
1
  0
ENDBLK
  5
5A
330
58
100
AcDbEntity
  8
0
100
AcDbBlockEnd
  0
BLOCK
  5
5C
330
5B
100
AcDbEntity
  8
0
100
AcDbBlockBegin
  2
*D5
 70
    1
 10
0
 20
0
  3
*D5
  1

  0
LINE
  5
78
100
AcDbEntity
  8
dimensions
  6
ByBlock
 62
    0
370
   -2
100
AcDbLine
 10
-1.5625
 20
20
 11
-173.125
 21
20.00000000000002
  0
LINE
  5
79
100
AcDbEntity
  8
dimensions
  6
ByBlock
 62
    0
370
   -2
100
AcDbLine
 10
-1.5625
 20
-70
 11
-173.125
 21
-69.99999999999999
  0
LINE
  5
7A
100
AcDbEntity
  8
dimensions
  6
ByBlock
 62
    0
370
   -2
100
AcDbLine
 10
-170
 20
20.00000000000002
 11
-170
 21
-69.99999999999999
  0
SOLID
  5
7B
100
AcDbEntity
  8
dimensions
  6
ByBlock
 62
    0
370
   -2
100
AcDbTrace
 10
-170
 20
20.00000000000002
 30
0
 11
-168.9592883555679
 21
13.75000000000002
 31
0
 12
-171.0407116444321
 22
13.75000000000002
 32
0
 13
-171.0407116444321
 23
13.75000000000002
 33
0
  0
SOLID
  5
7C
100
AcDbEntity
  8
dimensions
  6
ByBlock
 62
    0
370
   -2
100
AcDbTrace
 10
-170
 20
-69.99999999999999
 30
0
 11
-171.0407116444321
 21
-63.74999999999999
 31
0
 12
-168.9592883555679
 22
-63.74999999999999
 32
0
 13
-168.9592883555679
 23
-63.74999999999999
 33
0
  0
MTEXT
  5
7D
100
AcDbEntity
  8
dimensions
  6
CONTINUOUS
 62
    0
370
   -2
100
AcDbMText
 10
-174.6875
 20
-24.99999999999998
 30
0
 40
6.25
 41
7.638888888889277
 71
    5
 72
    1
  1
90
  7
standard
210
0
220
0
230
1
 50
90
 73
    2
 44
1
  0
ENDBLK
  5
5D
330
5B
100
AcDbEntity
  8
0
100
AcDbBlockEnd
  0
BLOCK
  5
5F
330
5E
100
AcDbEntity
  8
0
100
AcDbBlockBegin
  2
*D6
 70
    1
 10
0
 20
0
  3
*D6
  1

  0
LINE
  5
7E
100
AcDbEntity
  8
dimensions
  6
ByBlock
 62
    0
370
   -2
100
AcDbLine
 10
-1.5625
 20
20
 11
-123.125
 21
20.00000000000001
  0
LINE
  5
7F
100
AcDbEntity
  8
dimensions
  6
ByBlock
 62
    0
370
   -2
100
AcDbLine
 10
-1.5625
 20
-10
 11
-123.125
 21
-9.999999999999986
  0
LINE
  5
80
100
AcDbEntity
  8
dimensions
  6
ByBlock
 62
    0
370
   -2
100
AcDbLine
 10
-120
 20
20.00000000000001
 11
-120
 21
-9.999999999999986
  0
SOLID
  5
81
100
AcDbEntity
  8
dimensions
  6
ByBlock
 62
    0
370
   -2
100
AcDbTrace
 10
-120
 20
20.00000000000001
 30
0
 11
-118.9592883555679
 21
13.75000000000001
 31
0
 12
-121.0407116444321
 22
13.75000000000001
 32
0
 13
-121.0407116444321
 23
13.75000000000001
 33
0
  0
SOLID
  5
82
100
AcDbEntity
  8
dimensions
  6
ByBlock
 62
    0
370
   -2
100
AcDbTrace
 10
-120
 20
-9.999999999999986
 30
0
 11
-121.0407116444321
 21
-3.749999999999986
 31
0
 12
-118.9592883555679
 22
-3.749999999999986
 32
0
 13
-118.9592883555679
 23
-3.749999999999986
 33
0
  0
MTEXT
  5
83
100
AcDbEntity
  8
dimensions
  6
CONTINUOUS
 62
    0
370
   -2
100
AcDbMText
 10
-124.6875
 20
5.000000000000015
 30
0
 40
6.25
 41
7.638888888889277
 71
    5
 72
    1
  1
30
  7
standard
210
0
220
0
230
1
 50
90
 73
    2
 44
1
  0
ENDBLK
  5
60
330
5E
100
AcDbEntity
  8
0
100
AcDbBlockEnd
  0
BLOCK
  5
62
330
61
100
AcDbEntity
  8
0
100
AcDbBlockBegin
  2
*D7
 70
    1
 10
0
 20
0
  3
*D7
  1

  0
LINE
  5
84
100
AcDbEntity
  8
dimensions
  6
ByBlock
 62
    0
370
   -2
100
AcDbLine
 10
-124.6875
 20
-9.999999999999986
 11
-98.04922502470643
 21
-9.999999999999989
  0
LINE
  5
85
100
AcDbEntity
  8
dimensions
  6
ByBlock
 62
    0
370
   -2
100
AcDbLine
 10
-15.9576680879897
 20
75.9576680879897
 11
-48.82874658811397
 21
108.828746588114
  0
ARC
  5
86
100
AcDbEntity
  8
dimensions
  6
ByBlock
 62
    0
370
   -2
100
AcDbCircle
 10
70
 20
-10.00000000000001
 40
164.9242250247064
100
AcDbArc
 50
135
 51
180
  0
SOLID
  5
87
100
AcDbEntity
  8
dimensions
  6
ByBlock
 62
    0
370
   -2
100
AcDbTrace
 10
-94.92422502470643
 20
-9.999999999999989
 30
0
 11
-95.84633133931253
 21
-3.731403612337107
 31
0
 12
-93.76528168631529
 22
-3.770840260094825
 32
0
 13
-93.76528168631529
 23
-3.770840260094825
 33
0
  0
SOLID
  5
88
100
AcDbEntity
  8
dimensions
  6
ByBlock
 62
    0
370
   -2
100
AcDbTrace
 10
-46.61903789690601
 20
106.619037896906
 30
0
 11
-50.20422229649982
 21
101.3948601101375
 31
0
 12
-51.70363253917683
 22
102.838498510701
 32
0
 13
-51.70363253917683
 23
102.838498510701
 33
0
  0
MTEXT
  5
89
100
AcDbEntity
  8
dimensions
  6
CONTINUOUS
 62
    0
370
   -2
100
AcDbMText
 10
-83.81367768516093
 20
53.71171137567755
 30
0
 40
6.25
 41
12.50000000000039
 71
    8
 72
    1
  1
45%%D
  7
standard
210
0
220
0
230
1
 50
427.4999999999999
 73
    2
 44
1
  0
ENDBLK
  5
63
330
61
100
AcDbEntity
  8
0
100
AcDbBlockEnd
  0
BLOCK
  5
65
330
64
100
AcDbEntity
  8
0
100
AcDbBlockBegin
  2
*D3
 70
    1
 10
0
 20
0
  3
*D3
  1

  0
LINE
  5
8A
100
AcDbEntity
  8
dimensions
  6
ByBlock
 62
    0
370
   -2
100
AcDbLine
 10
21.60737966254568
 20
125.455142771048
 11
80.28582713695684
 21
184.1335902454591
  0
LINE
  5
8B
100
AcDbEntity
  8
dimensions
  6
ByBlock
 62
    0
370
   -2
100
AcDbLine
 10
106.4601934049314
 20
40.60232902866228
 11
165.1386408793425
 21
99.28077650307341
  0
LINE
  5
8C
100
AcDbEntity
  8
dimensions
  6
ByBlock
 62
    0
370
   -2
100
AcDbLine
 10
78.07611844574888
 20
181.9238815542512
 11
162.9289321881346
 21
97.07106781186545
  0
SOLID
  5
8D
100
AcDbEntity
  8
dimensions
  6
ByBlock
 62
    0
370
   -2
100
AcDbTrace
 10
78.07611844574888
 20
181.9238815542512
 30
0
 11
83.23143008920253
 21
178.240358432873
 31
0
 12
81.75964156712706
 22
176.7685699107975
 32
0
 13
81.75964156712706
 23
176.7685699107975
 33
0
  0
SOLID
  5
8E
100
AcDbEntity
  8
dimensions
  6
ByBlock
 62
    0
370
   -2
100
AcDbTrace
 10
162.9289321881346
 20
97.07106781186545
 30
0
 11
157.7736205446809
 21
100.7545909332436
 31
0
 12
159.2454090667564
 22
102.2263794553191
 32
0
 13
159.2454090667564
 23
102.2263794553191
 33
0
  0
MTEXT
  5
8F
100
AcDbEntity
  8
dimensions
  6
CONTINUOUS
 62
    0
370
   -2
100
AcDbMText
 10
123.8170883537537
 20
142.8120377198702
 30
0
 40
6.25
 41
11.11111111111111
 71
    5
 72
    1
  1
120
  7
standard
210
0
220
0
230
1
 50
315
 73
    2
 44
1
  0
ENDBLK
  5
66
330
64
100
AcDbEntity
  8
0
100
AcDbBlockEnd
  0
ENDSEC
  0
SECTION
  2
ENTITIES
  0
HATCH
  5
90
100
AcDbEntity
  8
out-part
  6
CONTINUOUS
 62
  256
370
   -1
100
AcDbHatch
 10
0
 20
0
 30
0
210
0
220
0
230
1
  2
ansi31
 70
    0
 71
    0
 91
    1
 92
    0
 93
   10
 72
    1
 10
-70.00000000000001
 20
-10.0000009536743
 11
-70
 21
-70
 72
    1
 10
-70
 20
-70
 11
-60
 21
-70
 72
    1
 10
-60
 20
-70
 11
-60
 21
-10
 72
    1
 10
-60
 20
-10
 11
-50.00000000000001
 21
-10
 72
    2
 10
70
 20
-10.00000000000001
 40
120
 50
180
 51
225
 73
    0
 72
    1
 10
-14.85281374238569
 20
74.85281374238573
 11
-21.92388155425114
 21
81.92388155425118
 72
    1
 10
-21.92388155425114
 20
81.92388155425118
 11
20.5025253169417
 21
124.350288425444
 72
    1
 10
20.5025253169417
 20
124.350288425444
 11
13.43145750507622
 21
131.4213562373095
 72
    1
 10
13.43145750507622
 20
131.4213562373095
 11
-28.99495087400812
 21
88.99494785822517
 72
    2
 10
70
 20
-10.00000000000001
 40
140
 50
135.0000008727295
 51
179.9999996097035
 73
    1
 97
    0
 75
    0
 76
    1
 52
0
 41
4
 77
    0
 78
    0
 98
    0
  0
HATCH
  5
91
100
AcDbEntity
  8
out-part2
  6
CONTINUOUS
 62
  256
370
   -1
100
AcDbHatch
 10
0
 20
0
 30
0
210
0
220
0
230
1
  2
ansi31
 70
    0
 71
    0
 91
    1
 92
    0
 93
    9
 72
    1
 10
50
 20
-10
 11
60
 21
-10
 72
    1
 10
60
 20
-10
 11
60
 21
-70
 72
    1
 10
60
 20
-70
 11
70
 21
-70
 72
    1
 10
70
 20
-70
 11
70
 21
-10.00000000000001
 72
    1
 10
70
 20
-10.00000000000001
 11
112.4264068711929
 21
32.42640687119284
 72
    1
 10
112.4264068711929
 20
32.42640687119284
 11
105.3553390593274
 21
39.49747468305831
 72
    1
 10
105.3553390593274
 20
39.49747468305831
 11
62.92893218813452
 21
-2.928932188134526
 72
    1
 10
62.92893218813452
 20
-2.928932188134526
 11
55.85786437626905
 21
4.142135623730958
 72
    2
 10
70
 20
-10.00000000000002
 40
20
 50
134.9999999999999
 51
180
 73
    1
 97
    0
 75
    0
 76
    1
 52
0
 41
4
 77
    0
 78
    0
 98
    0
  0
LWPOLYLINE
  5
92
100
AcDbEntity
  8
0
  6
ByLayer
 62
  256
370
   -1
100
AcDbPolyline
 90
    4
 70
    0
 43
0
 10
-70
 20
-10
 10
-70
 20
-70
 10
-60
 20
-70
 10
-60
 20
-70
  0
LWPOLYLINE
  5
93
100
AcDbEntity
  8
0
  6
ByLayer
 62
  256
370
   -1
100
AcDbPolyline
 90
    4
 70
    1
 43
0
 10
60
 20
-10
 10
-60
 20
-10
 10
-60
 20
-70
 10
60
 20
-70
  0
LINE
  5
94
100
AcDbEntity
  8
internal
  6
ByLayer
 62
  256
370
   -1
100
AcDbLine
 10
-60
 20
-70
 11
60
 21
-70
  0
LINE
  5
95
100
AcDbEntity
  8
internal
  6
ByLayer
 62
  256
370
   -1
100
AcDbLine
 10
-50
 20
-10
 11
50
 21
-10
  0
DIMENSION
  5
96
100
AcDbEntity
  8
auxiliary
  6
CONTINUOUS
 62
  256
370
   -1
100
AcDbDimension
  2
*D1
 10
70
 20
-100
 30
0
 11
2.870265935501609e-16
 21
-95.3125
 31
0
 70
   32
 71
    5
  3
Standard
 53
0
210
0
220
0
230
1
100
AcDbAlignedDimension
 13
-70
 23
-70
 33
0
 14
70
 24
-70
 34
0
100
AcDbRotatedDimension
  0
MTEXT
  5
97
100
AcDbEntity
  8
dimensions
  6
CONTINUOUS
 62
  256
370
   -1
100
AcDbMText
 10
-20
 20
-110
 30
0
 40
40
 41
26.66666666666667
 71
    1
 72
    1
  1
M
  7
standard
210
0
220
0
230
1
 50
0
 73
    2
 44
1
  0
LINE
  5
98
100
AcDbEntity
  8
auxiliary
  6
CONTINUOUS
 62
  256
370
   -1
100
AcDbLine
 10
70
 20
-70
 11
60
 21
-70
  0
LWPOLYLINE
  5
99
100
AcDbEntity
  8
0
  6
ByLayer
 62
  256
370
   -1
100
AcDbPolyline
 90
    4
 70
    1
 43
0
 10
105.3553390593274
 20
39.49747468305831
 10
20.50252531694171
 20
124.350288425444
 10
-21.92388155425115
 20
81.9238815542512
 10
62.92893218813452
 20
-2.928932188134523
  0
ARC
  5
9A
100
AcDbEntity
  8
0
  6
CONTINUOUS
 62
  256
370
   -1
100
AcDbCircle
 10
70
 20
-10
 40
140
100
AcDbArc
 50
135
 51
180
  0
LINE
  5
9B
100
AcDbEntity
  8
0
  6
CONTINUOUS
 62
  256
370
   -1
100
AcDbLine
 10
-28.99494936611663
 20
88.99494936611667
 11
13.43145750507623
 21
131.4213562373095
  0
LINE
  5
9C
100
AcDbEntity
  8
0
  6
CONTINUOUS
 62
  256
370
   -1
100
AcDbLine
 10
13.43145750507623
 20
131.4213562373095
 11
20.50252531694171
 21
124.350288425444
  0
ARC
  5
9D
100
AcDbEntity
  8
0
  6
CONTINUOUS
 62
  256
370
   -1
100
AcDbCircle
 10
70
 20
-10
 40
20
100
AcDbArc
 50
135
 51
180
  0
ARC
  5
9E
100
AcDbEntity
  8
0
  6
CONTINUOUS
 62
  256
370
   -1
100
AcDbCircle
 10
70
 20
-10
 40
120
100
AcDbArc
 50
135
 51
180
  0
LINE
  5
9F
100
AcDbEntity
  8
0
  6
CONTINUOUS
 62
  256
370
   -1
100
AcDbLine
 10
70
 20
-10
 11
112.4264068711929
 21
32.42640687119284
  0
LINE
  5
A0
100
AcDbEntity
  8
0
  6
CONTINUOUS
 62
  256
370
   -1
100
AcDbLine
 10
112.4264068711929
 20
32.42640687119284
 11
105.3553390593274
 21
39.49747468305831
  0
LINE
  5
A1
100
AcDbEntity
  8
0
  6
CONTINUOUS
 62
  256
370
   -1
100
AcDbLine
 10
60
 20
-70
 11
70
 21
-70
  0
LINE
  5
A2
100
AcDbEntity
  8
0
  6
CONTINUOUS
 62
  256
370
   -1
100
AcDbLine
 10
70
 20
-10
 11
70
 21
-70
  0
LINE
  5
A3
100
AcDbEntity
  8
auxiliary
  6
DASHED2
 62
  256
370
   -1
100
AcDbLine
 10
0
 20
-70
 11
0
 21
20
  0
LINE
  5
A4
100
AcDbEntity
  8
auxiliary
  6
DASHED2
 62
  256
370
   -1
100
AcDbLine
 10
0
 20
20
 11
70
 21
90
  0
LINE
  5
A5
100
AcDbEntity
  8
out-part2
  6
CONTINUOUS
 62
  256
370
   -1
100
AcDbLine
 10
50
 20
-10
 11
60
 21
-10
  0
LINE
  5
A6
100
AcDbEntity
  8
out-part2
  6
CONTINUOUS
 62
  256
370
   -1
100
AcDbLine
 10
60
 20
-10
 11
60
 21
-70
  0
LINE
  5
A7
100
AcDbEntity
  8
out-part2
  6
CONTINUOUS
 62
  256
370
   -1
100
AcDbLine
 10
60
 20
-70
 11
70
 21
-70
  0
LINE
  5
A8
100
AcDbEntity
  8
out-part2
  6
CONTINUOUS
 62
  256
370
   -1
100
AcDbLine
 10
70
 20
-70
 11
70
 21
-10.00000000000001
  0
LINE
  5
A9
100
AcDbEntity
  8
out-part2
  6
CONTINUOUS
 62
  256
370
   -1
100
AcDbLine
 10
70
 20
-10.00000000000001
 11
112.4264068711929
 21
32.42640687119284
  0
LINE
  5
AA
100
AcDbEntity
  8
out-part2
  6
CONTINUOUS
 62
  256
370
   -1
100
AcDbLine
 10
112.4264068711929
 20
32.42640687119284
 11
105.3553390593274
 21
39.49747468305831
  0
LINE
  5
AB
100
AcDbEntity
  8
out-part2
  6
CONTINUOUS
 62
  256
370
   -1
100
AcDbLine
 10
105.3553390593274
 20
39.49747468305831
 11
62.92893218813452
 21
-2.928932188134526
  0
LINE
  5
AC
100
AcDbEntity
  8
out-part2
  6
CONTINUOUS
 62
  256
370
   -1
100
AcDbLine
 10
62.92893218813452
 20
-2.928932188134526
 11
55.85786437626905
 21
4.142135623730958
  0
ARC
  5
AD
100
AcDbEntity
  8
out-part2
  6
CONTINUOUS
 62
  256
370
   -1
100
AcDbCircle
 10
70
 20
-10.00000000000002
 40
20
100
AcDbArc
 50
134.9999999999999
 51
180
  0
LINE
  5
AE
100
AcDbEntity
  8
out-part
  6
CONTINUOUS
 62
  256
370
   -1
100
AcDbLine
 10
-70.00000000000001
 20
-10.0000009536743
 11
-70
 21
-70
  0
LINE
  5
AF
100
AcDbEntity
  8
out-part
  6
CONTINUOUS
 62
  256
370
   -1
100
AcDbLine
 10
-70
 20
-70
 11
-60
 21
-70
  0
LINE
  5
B0
100
AcDbEntity
  8
out-part
  6
CONTINUOUS
 62
  256
370
   -1
100
AcDbLine
 10
-60
 20
-70
 11
-60
 21
-10
  0
LINE
  5
B1
100
AcDbEntity
  8
out-part
  6
CONTINUOUS
 62
  256
370
   -1
100
AcDbLine
 10
-60
 20
-10
 11
-50.00000000000001
 21
-10
  0
ARC
  5
B2
100
AcDbEntity
  8
out-part
  6
CONTINUOUS
 62
  256
370
   -1
100
AcDbCircle
 10
70
 20
-10.00000000000001
 40
120
100
AcDbArc
 50
135
 51
180
  0
ARC
  5
B3
100
AcDbEntity
  8
out-part
  6
CONTINUOUS
 62
  256
370
   -1
100
AcDbCircle
 10
70
 20
-10.00000000000001
 40
120
100
AcDbArc
 50
135
 51
180
  0
ARC
  5
B4
100
AcDbEntity
  8
out-part
  6
CONTINUOUS
 62
  256
370
   -1
100
AcDbCircle
 10
70
 20
-10.00000000000001
 40
140
100
AcDbArc
 50
135.0000008727295
 51
179.9999996097035
  0
LINE
  5
B5
100
AcDbEntity
  8
out-part
  6
CONTINUOUS
 62
  256
370
   -1
100
AcDbLine
 10
-28.99495087400812
 20
88.99494785822517
 11
13.43145750507622
 21
131.4213562373095
  0
LINE
  5
B6
100
AcDbEntity
  8
out-part
  6
CONTINUOUS
 62
  256
370
   -1
100
AcDbLine
 10
13.43145750507622
 20
131.4213562373095
 11
20.5025253169417
 21
124.350288425444
  0
LINE
  5
B7
100
AcDbEntity
  8
out-part
  6
CONTINUOUS
 62
  256
370
   -1
100
AcDbLine
 10
20.5025253169417
 20
124.350288425444
 11
-21.92388155425114
 21
81.92388155425118
  0
LINE
  5
B8
100
AcDbEntity
  8
out-part
  6
CONTINUOUS
 62
  256
370
   -1
100
AcDbLine
 10
-21.92388155425114
 20
81.92388155425118
 11
-14.85281374238569
 21
74.85281374238573
  0
LINE
  5
B9
100
AcDbEntity
  8
internal
  6
CONTINUOUS
 62
  256
370
   -1
100
AcDbLine
 10
55.85786437626903
 20
4.142135623730975
 11
-14.85281374238569
 21
74.85281374238573
  0
LINE
  5
BA
100
AcDbEntity
  8
internal
  6
CONTINUOUS
 62
  256
370
   -1
100
AcDbLine
 10
105.3553390593274
 20
39.49747468305831
 11
20.50252531694171
 21
124.350288425444
  0
DIMENSION
  5
BB
100
AcDbEntity
  8
dimensions
  6
ByLayer
 62
  256
370
   -1
100
AcDbDimension
  2
*D2
 10
105.857864376269
 20
54.1421356237309
 30
0
 11
73.81708835375365
 21
92.8120377198702
 31
0
 70
   33
 71
    5
 72
    0
  3
Standard
 53
0
210
0
220
0
230
1
100
AcDbAlignedDimension
 13
-14.85281374238567
 23
74.85281374238572
 33
0
 14
55.85786437626903
 24
4.142135623730975
 34
0
  0
DIMENSION
  5
BC
100
AcDbEntity
  8
dimensions
  6
ByLayer
 62
  256
370
   -1
100
AcDbDimension
  2
*D3
 10
162.9289321881346
 20
97.07106781186545
 30
0
 11
123.8170883537537
 21
142.8120377198702
 31
0
 70
   33
 71
    5
 72
    0
  3
Standard
 53
0
210
0
220
0
230
1
100
AcDbAlignedDimension
 13
20.5025253169417
 23
124.350288425444
 33
0
 14
105.3553390593274
 24
39.49747468305829
 34
0
  0
MTEXT
  5
BD
100
AcDbEntity
  8
dimensions
  6
CONTINUOUS
 62
  256
370
   -1
100
AcDbMText
 10
138.8888888888889
 20
180
 30
0
 40
40
 41
93.33333333333582
 71
    1
 72
    1
  1
POD
  7
standard
210
0
220
0
230
1
 50
0
 73
    2
 44
1
  0
LEADER
  5
BE
100
AcDbEntity
  8
dimensions
  6
ByLayer
 62
  256
370
   -1
100
AcDbLeader
  3
Standard
 71
    1
 72
    0
 73
    3
 74
    0
 75
    0
 40
1
 41
10
 76
5
 76
5
 10
90
 20
80
 30
0
 10
100
 20
90
 30
0
 10
160
 20
30
 30
0
 10
260
 20
30
 30
0
 10
260
 20
30
 30
0
  0
MTEXT
  5
BF
100
AcDbEntity
  8
dimensions
  6
CONTINUOUS
 62
  256
370
   -1
100
AcDbMText
 10
180
 20
80
 30
0
 40
40
 41
71.1111111111136
 71
    1
 72
    1
  1
PID
  7
standard
210
0
220
0
230
1
 50
0
 73
    2
 44
1
  0
DIMENSION
  5
C0
100
AcDbEntity
  8
dimensions
  6
ByLayer
 62
  256
370
   -1
100
AcDbDimension
  2
*D5
 10
-170
 20
-69.99999999999999
 30
0
 11
-174.6875
 21
-24.99999999999998
 31
0
 70
   33
 71
    5
 72
    0
  3
Standard
 53
0
210
0
220
0
230
1
100
AcDbAlignedDimension
 13
0
 23
20
 33
0
 14
0
 24
-70
 34
0
  0
DIMENSION
  5
C1
100
AcDbEntity
  8
dimensions
  6
ByLayer
 62
  256
370
   -1
100
AcDbDimension
  2
*D6
 10
-120
 20
-9.999999999999986
 30
0
 11
-124.6875
 21
5.000000000000015
 31
0
 70
   33
 71
    5
 72
    0
  3
Standard
 53
0
210
0
220
0
230
1
100
AcDbAlignedDimension
 13
0
 23
20
 33
0
 14
0
 24
-10
 34
0
  0
MTEXT
  5
C2
100
AcDbEntity
  8
dimensions
  6
CONTINUOUS
 62
  256
370
   -1
100
AcDbMText
 10
-150
 20
10
 30
0
 40
40
 41
13.33333333333582
 71
    1
 72
    1
  1
J
  7
standard
210
0
220
0
230
1
 50
0
 73
    2
 44
1
  0
MTEXT
  5
C3
100
AcDbEntity
  8
dimensions
  6
CONTINUOUS
 62
  256
370
   -1
100
AcDbMText
 10
-210
 20
-10
 30
0
 40
40
 41
22.22222222222222
 71
    1
 72
    1
  1
H
  7
standard
210
0
220
0
230
1
 50
0
 73
    2
 44
1
  0
DIMENSION
  5
C4
100
AcDbEntity
  8
dimensions
  6
ByLayer
 62
  256
370
   -1
100
AcDbDimension
  2
*D7
 10
-14.85281374238569
 20
74.85281374238573
 30
0
 11
0
 21
0
 31
0
 70
   34
 71
    5
  3
Standard
 53
0
210
0
220
0
230
1
100
AcDb2LineAngularDimension
 13
-1.5625
 23
-10
 33
0
 14
-123.125
 24
-9.999999999999986
 34
0
 15
55.85786437626903
 25
4.142135623730975
 35
0
 16
-90
 26
30
 36
0
  0
MTEXT
  5
C5
100
AcDbEntity
  8
dimensions
  6
ByLayer
 62
  256
370
   -1
100
AcDbMText
 10
-221.111111111113
 20
110
 30
0
 40
40
 41
128.8888888888945
 71
    1
 72
    1
  1
alpha
  7
standard
210
0
220
0
230
1
 50
0
 73
    2
 44
1
  0
ENDSEC
  0
SECTION
  2
OBJECTS
  0
DICTIONARY
  5
C
330
0
100
AcDbDictionary
281
    1
  3
ACAD_GROUP
350
D
  0
DICTIONARY
  5
D
330
C
100
AcDbDictionary
281
    1
  0
ENDSEC
  0
EOF
