999
dxfrw 0.6.3
  0
SECTION
  2
HEADER
  9
$ACADVER
  1
AC1021
  9
$DWGCODEPAGE
  3
ANSI_1252
  9
$INSBASE
 10
0
 20
0
 30
0
  9
$EXTMIN
 10
10000000000
 20
10000000000
 30
0
  9
$EXTMAX
 10
-10000000000
 20
-10000000000
 30
0
  9
$LIMMIN
 10
0
 20
0
  9
$LIMMAX
 10
420
 20
297
  9
$ORTHOMODE
 70
    0
  9
$REGENMODE
 70
    1
  9
$FILLMODE
 70
    1
  9
$QTEXTMODE
 70
    0
  9
$MIRRTEXT
 70
    0
  9
$LTSCALE
 40
1
  9
$ATTMODE
 70
    0
  9
$TEXTSIZE
 40
2.5
  9
$TRACEWID
 40
15.68
  9
$TEXTSTYLE
  7
STANDARD
  9
$CLAYER
  8
dimensions
  9
$CELTYPE
  6
BYLAYER
  9
$CECOLOR
 62
  256
  9
$CELTSCALE
 40
1
  9
$DISPSILH
 70
    0
  9
$DIMSCALE
 40
2.5
  9
$DIMASZ
 40
2.5
  9
$DIMEXO
 40
0.625
  9
$DIMDLI
 40
3.75
  9
$DIMRND
 40
0
  9
$DIMDLE
 40
0
  9
$DIMEXE
 40
1.25
  9
$DIMTP
 40
0
  9
$DIMTM
 40
0
  9
$DIMTXT
 40
2.5
  9
$DIMCEN
 40
2.5
  9
$DIMTSZ
 40
0
  9
$DIMTOL
 70
    0
  9
$DIMLIM
 70
    0
  9
$DIMTIH
 70
    0
  9
$DIMTOH
 70
    0
  9
$DIMSE1
 70
    0
  9
$DIMSE2
 70
    0
  9
$DIMTAD
 70
    1
  9
$DIMZIN
 70
    8
  9
$DIMBLK
  1

  9
$DIMASO
 70
    1
  9
$DIMSHO
 70
    1
  9
$DIMPOST
  1

  9
$DIMAPOST
  1

  9
$DIMALT
 70
    0
  9
$DIMALTD
 70
    3
  9
$DIMALTF
 40
0.03937
  9
$DIMLFAC
 40
1
  9
$DIMTOFL
 70
    1
  9
$DIMTVP
 40
0
  9
$DIMTIX
 70
    0
  9
$DIMSOXD
 70
    0
  9
$DIMSAH
 70
    0
  9
$DIMBLK1
  1

  9
$DIMBLK2
  1

  9
$DIMSTYLE
  2
STANDARD
  9
$DIMCLRD
 70
    0
  9
$DIMCLRE
 70
    0
  9
$DIMCLRT
 70
    0
  9
$DIMTFAC
 40
1
  9
$DIMGAP
 40
0.625
  9
$DIMJUST
 70
    0
  9
$DIMSD1
 70
    0
  9
$DIMSD2
 70
    0
  9
$DIMTOLJ
 70
    0
  9
$DIMTZIN
 70
    8
  9
$DIMALTZ
 70
    0
  9
$DIMALTTZ
 70
    0
  9
$DIMUPT
 70
    0
  9
$DIMDEC
 70
    2
  9
$DIMTDEC
 70
    2
  9
$DIMALTU
 70
    2
  9
$DIMALTTD
 70
    3
  9
$DIMTXSTY
  7
standard
  9
$DIMAUNIT
 70
    0
  9
$DIMADEC
 70
    0
  9
$DIMALTRND
 40
0
  9
$DIMAZIN
 70
    0
  9
$DIMDSEP
 70
   44
  9
$DIMATFIT
 70
    3
  9
$DIMFRAC
 70
    0
  9
$DIMLDRBLK
  1
STANDARD
  9
$DIMLUNIT
 70
    2
  9
$DIMLWD
 70
   -2
  9
$DIMLWE
 70
   -2
  9
$DIMTMOVE
 70
    0
  9
$DIMFXL
 40
1
  9
$DIMFXLON
 70
    0
  9
$DIMJOGANG
 40
0.7854
  9
$DIMTFILL
 70
    0
  9
$DIMTFILLCLR
 70
    0
  9
$DIMARCSYM
 70
    0
  9
$DIMLTYPE
  6

  9
$DIMLTEX1
  6

  9
$DIMLTEX2
  6

  9
$LUNITS
 70
    2
  9
$LUPREC
 70
    4
  9
$SKETCHINC
 40
1
  9
$FILLETRAD
 40
0
  9
$AUNITS
 70
    0
  9
$AUPREC
 70
    2
  9
$MENU
  1
.
  9
$ELEVATION
 40
0
  9
$PELEVATION
 40
0
  9
$THICKNESS
 40
0
  9
$LIMCHECK
 70
    0
  9
$CHAMFERA
 40
0
  9
$CHAMFERB
 40
0
  9
$CHAMFERC
 40
0
  9
$CHAMFERD
 40
0
  9
$SKPOLY
 70
    0
  9
$USRTIMER
 70
    1
  9
$ANGBASE
 50
0
  9
$ANGDIR
 70
    0
  9
$PDMODE
 70
   34
  9
$PDSIZE
 40
0
  9
$PLINEWID
 40
0
  9
$SPLFRAME
 70
    0
  9
$SPLINETYPE
 70
    2
  9
$SPLINESEGS
 70
    8
  9
$HANDSEED
  5
20000
  9
$SURFTAB1
 70
    6
  9
$SURFTAB2
 70
    6
  9
$SURFTYPE
 70
    6
  9
$SURFU
 70
    6
  9
$SURFV
 70
    6
  9
$UCSBASE
  2

  9
$UCSNAME
  2

  9
$UCSORG
 10
0
 20
0
 30
0
  9
$UCSXDIR
 10
1
 20
0
 30
0
  9
$UCSYDIR
 10
0
 20
1
 30
0
  9
$UCSORTHOREF
  2

  9
$UCSORTHOVIEW
 70
    0
  9
$UCSORGTOP
 10
0
 20
0
 30
0
  9
$UCSORGBOTTOM
 10
0
 20
0
 30
0
  9
$UCSORGLEFT
 10
0
 20
0
 30
0
  9
$UCSORGRIGHT
 10
0
 20
0
 30
0
  9
$UCSORGFRONT
 10
0
 20
0
 30
0
  9
$UCSORGBACK
 10
0
 20
0
 30
0
  9
$PUCSBASE
  2

  9
$PUCSNAME
  2

  9
$PUCSORG
 10
0
 20
0
 30
0
  9
$PUCSXDIR
 10
1
 20
0
 30
0
  9
$PUCSYDIR
 10
0
 20
1
 30
0
  9
$PUCSORTHOREF
  2

  9
$PUCSORTHOVIEW
 70
    0
  9
$PUCSORGTOP
 10
0
 20
0
 30
0
  9
$PUCSORGBOTTOM
 10
0
 20
0
 30
0
  9
$PUCSORGLEFT
 10
0
 20
0
 30
0
  9
$PUCSORGRIGHT
 10
0
 20
0
 30
0
  9
$PUCSORGFRONT
 10
0
 20
0
 30
0
  9
$PUCSORGBACK
 10
0
 20
0
 30
0
  9
$USERI1
 70
    0
  9
$USERI2
 70
    0
  9
$USERI3
 70
    0
  9
$USERI4
 70
    0
  9
$USERI5
 70
    0
  9
$USERR1
 40
0
  9
$USERR2
 40
0
  9
$USERR3
 40
0
  9
$USERR4
 40
0
  9
$USERR5
 40
0
  9
$WORLDVIEW
 70
    1
  9
$SHADEDGE
 70
    3
  9
$SHADEDIF
 70
   70
  9
$TILEMODE
 70
    1
  9
$MAXACTVP
 70
   64
  9
$PINSBASE
 10
0
 20
0
 30
0
  9
$PLIMCHECK
 70
    0
  9
$PEXTMIN
 10
0
 20
0
 30
0
  9
$PEXTMAX
 10
0
 20
0
 30
0
  9
$GRIDMODE
 70
    1
  9
$SNAPSTYLE
 70
    0
  9
$GRIDUNIT
 10
0
 20
0
  9
$PLIMMIN
 10
0
 20
0
  9
$PLIMMAX
 10
210
 20
297
  9
$UNITMODE
 70
    0
  9
$VISRETAIN
 70
    1
  9
$PLINEGEN
 70
    0
  9
$PSLTSCALE
 70
    1
  9
$TREEDEPTH
 70
 3020
  9
$CMLSTYLE
  2
Standard
  9
$CMLJUST
 70
    0
  9
$CMLSCALE
 40
20
  9
$PROXYGRAPHICS
 70
    1
  9
$MEASUREMENT
 70
    1
  9
$CELWEIGHT
370
   -1
  9
$ENDCAPS
280
    0
  9
$JOINSTYLE
280
    0
  9
$LWDISPLAY
290
    0
  9
$INSUNITS
 70
    4
  9
$HYPERLINKBASE
  1

  9
$STYLESHEET
  1

  9
$XEDIT
290
    1
  9
$CEPSNTYPE
380
    0
  9
$PSTYLEMODE
290
    1
  9
$EXTNAMES
290
    1
  9
$PSVPSCALE
 40
1
  9
$OLESTARTUP
290
    0
  9
$SORTENTS
280
  127
  9
$INDEXCTL
280
    0
  9
$HIDETEXT
280
    1
  9
$XCLIPFRAME
290
    0
  9
$HALOGAP
280
    0
  9
$OBSCOLOR
 70
  257
  9
$OBSLTYPE
280
    0
  9
$INTERSECTIONDISPLAY
280
    0
  9
$INTERSECTIONCOLOR
 70
  257
  9
$DIMASSOC
280
    1
  9
$PROJECTNAME
  1

  9
$CAMERADISPLAY
290
    0
  9
$LENSLENGTH
 40
50
  9
$CAMERAHEIGHT
 40
0
  9
$STEPSPERSEC
 40
2
  9
$STEPSIZE
 40
50
  9
$3DDWFPREC
 40
2
  9
$PSOLWIDTH
 40
5
  9
$PSOLHEIGHT
 40
80
  9
$LOFTANG1
 40
1.570796326794897
  9
$LOFTANG2
 40
1.570796326794897
  9
$LOFTMAG1
 40
0
  9
$LOFTMAG2
 40
0
  9
$LOFTPARAM
 70
    7
  9
$LOFTNORMALS
280
    1
  9
$LATITUDE
 40
1
  9
$LONGITUDE
 40
1
  9
$NORTHDIRECTION
 40
0
  9
$TIMEZONE
 70
-8000
  9
$LIGHTGLYPHDISPLAY
280
    1
  9
$TILEMODELIGHTSYNCH
280
    1
  9
$SOLIDHIST
280
    1
  9
$SHOWHIST
280
    1
  9
$DWFFRAME
280
    2
  9
$DGNFRAME
280
    0
  9
$REALWORLDSCALE
290
    1
  9
$INTERFERECOLOR
 62
    1
  9
$CSHADOW
280
    0
  9
$SHADOWPLANELOCATION
 40
0
  0
ENDSEC
  0
SECTION
  2
CLASSES
  0
ENDSEC
  0
SECTION
  2
TABLES
  0
TABLE
  2
VPORT
  5
8
330
0
100
AcDbSymbolTable
 70
    1
  0
VPORT
  5
31
330
2
100
AcDbSymbolTableRecord
100
AcDbViewportTableRecord
  2
*ACTIVE
 70
    0
 10
0
 20
0
 11
1
 21
1
 12
133.5712679856171
 22
-50.42996852518196
 13
0
 23
0
 14
10
 24
10
 15
10
 25
10
 16
0
 26
0
 36
1
 17
0
 27
0
 37
0
 40
378.9062500000159
 41
2.712230215827338
 42
50
 43
0
 44
0
 50
0
 51
0
 71
    0
 72
  100
 73
    1
 74
    3
 75
    0
 76
    1
 77
    0
 78
    0
281
    0
 65
    1
110
0
120
0
130
0
111
1
121
0
131
0
112
0
122
1
132
0
 79
    0
146
0
348
10020
 60
    7
 61
    5
292
1
282
    1
141
0
142
0
 63
  250
421
3358443
  0
ENDTAB
  0
TABLE
  2
LTYPE
  5
5
330
0
100
AcDbSymbolTable
 70
    4
  0
LTYPE
  5
14
330
5
100
AcDbSymbolTableRecord
100
AcDbLinetypeTableRecord
  2
ByBlock
 70
    0
  3

 72
   65
 73
    0
 40
0
  0
LTYPE
  5
15
330
5
100
AcDbSymbolTableRecord
100
AcDbLinetypeTableRecord
  2
ByLayer
 70
    0
  3

 72
   65
 73
    0
 40
0
  0
LTYPE
  5
16
330
5
100
AcDbSymbolTableRecord
100
AcDbLinetypeTableRecord
  2
Continuous
 70
    0
  3
Solid line
 72
   65
 73
    0
 40
0
  0
LTYPE
  5
32
330
5
100
AcDbSymbolTableRecord
100
AcDbLinetypeTableRecord
  2
DOT
 70
    0
  3
Dot . . . . . . . . . . . . . . . . . . . . . .
 72
   65
 73
    2
 40
6.35
 49
0
 74
    0
 49
-6.35
 74
    0
  0
LTYPE
  5
33
330
5
100
AcDbSymbolTableRecord
100
AcDbLinetypeTableRecord
  2
DOTTINY
 70
    0
  3
Dot (.15x) .....................................
 72
   65
 73
    2
 40
0.9525
 49
0
 74
    0
 49
-0.9525
 74
    0
  0
LTYPE
  5
34
330
5
100
AcDbSymbolTableRecord
100
AcDbLinetypeTableRecord
  2
DOT2
 70
    0
  3
Dot (.5x) .....................................
 72
   65
 73
    2
 40
3.175
 49
0
 74
    0
 49
-3.175
 74
    0
  0
LTYPE
  5
35
330
5
100
AcDbSymbolTableRecord
100
AcDbLinetypeTableRecord
  2
DOTX2
 70
    0
  3
Dot (2x) .  .  .  .  .  .  .  .  .  .  .  .  .
 72
   65
 73
    2
 40
12.7
 49
0
 74
    0
 49
-12.7
 74
    0
  0
LTYPE
  5
36
330
5
100
AcDbSymbolTableRecord
100
AcDbLinetypeTableRecord
  2
DASHED
 70
    0
  3
Dashed _ _ _ _ _ _ _ _ _ _ _ _ _ _ _ _ _
 72
   65
 73
    2
 40
19.05
 49
12.7
 74
    0
 49
-6.35
 74
    0
  0
LTYPE
  5
37
330
5
100
AcDbSymbolTableRecord
100
AcDbLinetypeTableRecord
  2
DASHEDTINY
 70
    0
  3
Dashed (.15x) _ _ _ _ _ _ _ _ _ _ _ _ _ _ _ _ _
 72
   65
 73
    2
 40
2.8575
 49
1.905
 74
    0
 49
-0.9525
 74
    0
  0
LTYPE
  5
38
330
5
100
AcDbSymbolTableRecord
100
AcDbLinetypeTableRecord
  2
DASHED2
 70
    0
  3
Dashed (.5x) _ _ _ _ _ _ _ _ _ _ _ _ _ _ _ _ _
 72
   65
 73
    2
 40
9.524999999999999
 49
6.35
 74
    0
 49
-3.175
 74
    0
  0
LTYPE
  5
39
330
5
100
AcDbSymbolTableRecord
100
AcDbLinetypeTableRecord
  2
DASHEDX2
 70
    0
  3
Dashed (2x) ____  ____  ____  ____  ____  ___
 72
   65
 73
    2
 40
38.09999999999999
 49
25.4
 74
    0
 49
-12.7
 74
    0
  0
LTYPE
  5
3A
330
5
100
AcDbSymbolTableRecord
100
AcDbLinetypeTableRecord
  2
DASHDOT
 70
    0
  3
Dash dot __ . __ . __ . __ . __ . __ . __ . __
 72
   65
 73
    4
 40
25.4
 49
12.7
 74
    0
 49
-6.35
 74
    0
 49
0
 74
    0
 49
-6.35
 74
    0
  0
LTYPE
  5
3B
330
5
100
AcDbSymbolTableRecord
100
AcDbLinetypeTableRecord
  2
DASHDOTTINY
 70
    0
  3
Dash dot (.15x) _._._._._._._._._._._._._._._.
 72
   65
 73
    4
 40
3.81
 49
1.905
 74
    0
 49
-0.9525
 74
    0
 49
0
 74
    0
 49
-0.9525
 74
    0
  0
LTYPE
  5
3C
330
5
100
AcDbSymbolTableRecord
100
AcDbLinetypeTableRecord
  2
DASHDOT2
 70
    0
  3
Dash dot (.5x) _._._._._._._._._._._._._._._.
 72
   65
 73
    4
 40
12.7
 49
6.35
 74
    0
 49
-3.175
 74
    0
 49
0
 74
    0
 49
-3.175
 74
    0
  0
LTYPE
  5
3D
330
5
100
AcDbSymbolTableRecord
100
AcDbLinetypeTableRecord
  2
DASHDOTX2
 70
    0
  3
Dash dot (2x) ____  .  ____  .  ____  .  ___
 72
   65
 73
    4
 40
50.8
 49
25.4
 74
    0
 49
-12.7
 74
    0
 49
0
 74
    0
 49
-12.7
 74
    0
  0
LTYPE
  5
3E
330
5
100
AcDbSymbolTableRecord
100
AcDbLinetypeTableRecord
  2
DIVIDE
 70
    0
  3
Divide ____ . . ____ . . ____ . . ____ . . ____
 72
   65
 73
    6
 40
31.75
 49
12.7
 74
    0
 49
-6.35
 74
    0
 49
0
 74
    0
 49
-6.35
 74
    0
 49
0
 74
    0
 49
-6.35
 74
    0
  0
LTYPE
  5
3F
330
5
100
AcDbSymbolTableRecord
100
AcDbLinetypeTableRecord
  2
DIVIDETINY
 70
    0
  3
Divide (.15x) __..__..__..__..__..__..__..__.._
 72
   65
 73
    6
 40
4.7625
 49
1.905
 74
    0
 49
-0.9525
 74
    0
 49
0
 74
    0
 49
-0.9525
 74
    0
 49
0
 74
    0
 49
-0.9525
 74
    0
  0
LTYPE
  5
40
330
5
100
AcDbSymbolTableRecord
100
AcDbLinetypeTableRecord
  2
DIVIDE2
 70
    0
  3
Divide (.5x) __..__..__..__..__..__..__..__.._
 72
   65
 73
    6
 40
15.875
 49
6.35
 74
    0
 49
-3.175
 74
    0
 49
0
 74
    0
 49
-3.175
 74
    0
 49
0
 74
    0
 49
-3.175
 74
    0
  0
LTYPE
  5
41
330
5
100
AcDbSymbolTableRecord
100
AcDbLinetypeTableRecord
  2
DIVIDEX2
 70
    0
  3
Divide (2x) ________  .  .  ________  .  .  _
 72
   65
 73
    6
 40
63.5
 49
25.4
 74
    0
 49
-12.7
 74
    0
 49
0
 74
    0
 49
-12.7
 74
    0
 49
0
 74
    0
 49
-12.7
 74
    0
  0
LTYPE
  5
42
330
5
100
AcDbSymbolTableRecord
100
AcDbLinetypeTableRecord
  2
BORDER
 70
    0
  3
Border __ __ . __ __ . __ __ . __ __ . __ __ .
 72
   65
 73
    6
 40
44.45
 49
12.7
 74
    0
 49
-6.35
 74
    0
 49
12.7
 74
    0
 49
-6.35
 74
    0
 49
0
 74
    0
 49
-6.35
 74
    0
  0
LTYPE
  5
43
330
5
100
AcDbSymbolTableRecord
100
AcDbLinetypeTableRecord
  2
BORDERTINY
 70
    0
  3
Border (.15x) __.__.__.__.__.__.__.__.__.__.__.
 72
   65
 73
    6
 40
6.6675
 49
1.905
 74
    0
 49
-0.9525
 74
    0
 49
1.905
 74
    0
 49
-0.9525
 74
    0
 49
0
 74
    0
 49
-0.9525
 74
    0
  0
LTYPE
  5
44
330
5
100
AcDbSymbolTableRecord
100
AcDbLinetypeTableRecord
  2
BORDER2
 70
    0
  3
Border (.5x) __.__.__.__.__.__.__.__.__.__.__.
 72
   65
 73
    6
 40
22.225
 49
6.35
 74
    0
 49
-3.175
 74
    0
 49
6.35
 74
    0
 49
-3.175
 74
    0
 49
0
 74
    0
 49
-3.175
 74
    0
  0
LTYPE
  5
45
330
5
100
AcDbSymbolTableRecord
100
AcDbLinetypeTableRecord
  2
BORDERX2
 70
    0
  3
Border (2x) ____  ____  .  ____  ____  .  ___
 72
   65
 73
    6
 40
88.89999999999999
 49
25.4
 74
    0
 49
-12.7
 74
    0
 49
25.4
 74
    0
 49
-12.7
 74
    0
 49
0
 74
    0
 49
-12.7
 74
    0
  0
LTYPE
  5
46
330
5
100
AcDbSymbolTableRecord
100
AcDbLinetypeTableRecord
  2
CENTER
 70
    0
  3
Center ____ _ ____ _ ____ _ ____ _ ____ _ ____
 72
   65
 73
    4
 40
50.8
 49
31.75
 74
    0
 49
-6.35
 74
    0
 49
6.35
 74
    0
 49
-6.35
 74
    0
  0
LTYPE
  5
47
330
5
100
AcDbSymbolTableRecord
100
AcDbLinetypeTableRecord
  2
CENTERTINY
 70
    0
  3
Center (.15x) ___ _ ___ _ ___ _ ___ _ ___ _ ___
 72
   65
 73
    4
 40
7.619999999999999
 49
4.7625
 74
    0
 49
-0.9525
 74
    0
 49
0.9525
 74
    0
 49
-0.9525
 74
    0
  0
LTYPE
  5
48
330
5
100
AcDbSymbolTableRecord
100
AcDbLinetypeTableRecord
  2
CENTER2
 70
    0
  3
Center (.5x) ___ _ ___ _ ___ _ ___ _ ___ _ ___
 72
   65
 73
    4
 40
28.575
 49
19.05
 74
    0
 49
-3.175
 74
    0
 49
3.175
 74
    0
 49
-3.175
 74
    0
  0
LTYPE
  5
49
330
5
100
AcDbSymbolTableRecord
100
AcDbLinetypeTableRecord
  2
CENTERX2
 70
    0
  3
Center (2x) ________  __  ________  __  _____
 72
   65
 73
    4
 40
101.6
 49
63.5
 74
    0
 49
-12.7
 74
    0
 49
12.7
 74
    0
 49
-12.7
 74
    0
  0
ENDTAB
  0
TABLE
  2
LAYER
  5
2
330
0
100
AcDbSymbolTable
 70
    1
  0
LAYER
  5
10
330
2
100
AcDbSymbolTableRecord
100
AcDbLayerTableRecord
  2
0
 70
    0
 62
    7
  6
CONTINUOUS
370
    0
390
F
  0
LAYER
  5
4A
330
2
100
AcDbSymbolTableRecord
100
AcDbLayerTableRecord
  2
auxiliary
 70
    0
 62
    7
  6
CONTINUOUS
370
    0
390
F
  0
LAYER
  5
4B
330
2
100
AcDbSymbolTableRecord
100
AcDbLayerTableRecord
  2
dimensions
 70
    0
 62
    7
  6
CONTINUOUS
370
    0
390
F
  0
LAYER
  5
4C
330
2
100
AcDbSymbolTableRecord
100
AcDbLayerTableRecord
  2
internal
 70
    0
 62
    7
  6
CONTINUOUS
370
    0
390
F
  0
LAYER
  5
4D
330
2
100
AcDbSymbolTableRecord
100
AcDbLayerTableRecord
  2
out-part
 70
    0
 62
    7
  6
CONTINUOUS
370
    0
390
F
  0
LAYER
  5
4E
330
2
100
AcDbSymbolTableRecord
100
AcDbLayerTableRecord
  2
triangle
 70
    0
 62
    7
  6
CONTINUOUS
370
    0
390
F
  0
ENDTAB
  0
TABLE
  2
STYLE
  5
3
330
0
100
AcDbSymbolTable
 70
    3
  0
STYLE
  5
4F
330
2
100
AcDbSymbolTableRecord
100
AcDbTextStyleTableRecord
  2
standard
 70
    0
 40
0
 41
1
 50
0
 71
    0
 42
1
  3
standard
  4

  0
ENDTAB
  0
TABLE
  2
VIEW
  5
6
330
0
100
AcDbSymbolTable
 70
    0
  0
ENDTAB
  0
TABLE
  2
UCS
  5
7
330
0
100
AcDbSymbolTable
 70
    0
  0
ENDTAB
  0
TABLE
  2
APPID
  5
9
330
0
100
AcDbSymbolTable
 70
    1
  0
APPID
  5
12
330
9
100
AcDbSymbolTableRecord
100
AcDbRegAppTableRecord
  2
ACAD
 70
    0
  0
APPID
  5
50
330
9
100
AcDbSymbolTableRecord
100
AcDbRegAppTableRecord
  2
LibreCad
 70
    0
  0
ENDTAB
  0
TABLE
  2
DIMSTYLE
  5
A
330
0
100
AcDbSymbolTable
 70
    1
100
AcDbDimStyleTable
 71
    1
  0
DIMSTYLE
105
51
330
A
100
AcDbSymbolTableRecord
100
AcDbDimStyleTableRecord
  2
Standard
 70
    0
 40
2.5
 41
2.5
 42
0.625
 43
0.38
 44
1.25
 45
0
 46
0
 47
0
 48
0
 49
1
140
2.5
141
0.09
142
0
143
25.4
144
1
145
0
146
1
147
0.625
148
0
 71
    0
 72
    0
 73
    0
 74
    1
 75
    0
 76
    0
 77
    0
 78
    8
 79
    0
170
    0
171
    2
172
    0
173
    0
174
    0
175
    0
176
    0
177
    0
178
    0
179
    0
271
    2
272
    4
273
    2
274
    2
275
    0
276
    0
277
    2
278
   44
279
    0
280
    0
281
    0
282
    0
283
    1
284
    0
285
    0
286
    0
288
    0
289
    3
340
standard
341

371
   -2
372
   -2
  0
ENDTAB
  0
TABLE
  2
BLOCK_RECORD
  5
1
330
0
100
AcDbSymbolTable
 70
    2
  0
BLOCK_RECORD
  5
1F
330
1
100
AcDbSymbolTableRecord
100
AcDbBlockTableRecord
  2
*Model_Space
 70
    0
280
    1
281
    0
  0
BLOCK_RECORD
  5
1E
330
1
100
AcDbSymbolTableRecord
100
AcDbBlockTableRecord
  2
*Paper_Space
 70
    0
280
    1
281
    0
  0
BLOCK_RECORD
  5
52
330
1
100
AcDbSymbolTableRecord
100
AcDbBlockTableRecord
  2
*D11
 70
    0
280
    1
281
    0
  0
BLOCK_RECORD
  5
55
330
1
100
AcDbSymbolTableRecord
100
AcDbBlockTableRecord
  2
*D17
 70
    0
280
    1
281
    0
  0
BLOCK_RECORD
  5
58
330
1
100
AcDbSymbolTableRecord
100
AcDbBlockTableRecord
  2
*D2
 70
    0
280
    1
281
    0
  0
BLOCK_RECORD
  5
5B
330
1
100
AcDbSymbolTableRecord
100
AcDbBlockTableRecord
  2
*D16
 70
    0
280
    1
281
    0
  0
BLOCK_RECORD
  5
5E
330
1
100
AcDbSymbolTableRecord
100
AcDbBlockTableRecord
  2
*D20
 70
    0
280
    1
281
    0
  0
BLOCK_RECORD
  5
61
330
1
100
AcDbSymbolTableRecord
100
AcDbBlockTableRecord
  2
*D13
 70
    0
280
    1
281
    0
  0
BLOCK_RECORD
  5
64
330
1
100
AcDbSymbolTableRecord
100
AcDbBlockTableRecord
  2
*D18
 70
    0
280
    1
281
    0
  0
BLOCK_RECORD
  5
67
330
1
100
AcDbSymbolTableRecord
100
AcDbBlockTableRecord
  2
*D9
 70
    0
280
    1
281
    0
  0
BLOCK_RECORD
  5
6A
330
1
100
AcDbSymbolTableRecord
100
AcDbBlockTableRecord
  2
*D7
 70
    0
280
    1
281
    0
  0
BLOCK_RECORD
  5
6D
330
1
100
AcDbSymbolTableRecord
100
AcDbBlockTableRecord
  2
*D6
 70
    0
280
    1
281
    0
  0
BLOCK_RECORD
  5
70
330
1
100
AcDbSymbolTableRecord
100
AcDbBlockTableRecord
  2
*D15
 70
    0
280
    1
281
    0
  0
BLOCK_RECORD
  5
73
330
1
100
AcDbSymbolTableRecord
100
AcDbBlockTableRecord
  2
*D19
 70
    0
280
    1
281
    0
  0
BLOCK_RECORD
  5
76
330
1
100
AcDbSymbolTableRecord
100
AcDbBlockTableRecord
  2
*D14
 70
    0
280
    1
281
    0
  0
BLOCK_RECORD
  5
79
330
1
100
AcDbSymbolTableRecord
100
AcDbBlockTableRecord
  2
*D21
 70
    0
280
    1
281
    0
  0
BLOCK_RECORD
  5
7C
330
1
100
AcDbSymbolTableRecord
100
AcDbBlockTableRecord
  2
*D4
 70
    0
280
    1
281
    0
  0
BLOCK_RECORD
  5
7F
330
1
100
AcDbSymbolTableRecord
100
AcDbBlockTableRecord
  2
*D5
 70
    0
280
    1
281
    0
  0
BLOCK_RECORD
  5
82
330
1
100
AcDbSymbolTableRecord
100
AcDbBlockTableRecord
  2
*D12
 70
    0
280
    1
281
    0
  0
BLOCK_RECORD
  5
85
330
1
100
AcDbSymbolTableRecord
100
AcDbBlockTableRecord
  2
*D8
 70
    0
280
    1
281
    0
  0
BLOCK_RECORD
  5
88
330
1
100
AcDbSymbolTableRecord
100
AcDbBlockTableRecord
  2
*D1
 70
    0
280
    1
281
    0
  0
BLOCK_RECORD
  5
8B
330
1
100
AcDbSymbolTableRecord
100
AcDbBlockTableRecord
  2
*D3
 70
    0
280
    1
281
    0
  0
BLOCK_RECORD
  5
8E
330
1
100
AcDbSymbolTableRecord
100
AcDbBlockTableRecord
  2
*D22
 70
    0
280
    1
281
    0
  0
BLOCK_RECORD
  5
91
330
1
100
AcDbSymbolTableRecord
100
AcDbBlockTableRecord
  2
*D10
 70
    0
280
    1
281
    0
  0
ENDTAB
  0
ENDSEC
  0
SECTION
  2
BLOCKS
  0
BLOCK
  5
20
330
1F
100
AcDbEntity
  8
0
100
AcDbBlockBegin
  2
*Model_Space
 70
    0
 10
0
 20
0
 30
0
  3
*Model_Space
  1

  0
ENDBLK
  5
21
330
1F
100
AcDbEntity
  8
0
100
AcDbBlockEnd
  0
BLOCK
  5
1C
330
1B
100
AcDbEntity
  8
0
100
AcDbBlockBegin
  2
*Paper_Space
 70
    0
 10
0
 20
0
 30
0
  3
*Paper_Space
  1

  0
ENDBLK
  5
1D
330
1F
100
AcDbEntity
  8
0
100
AcDbBlockEnd
  0
BLOCK
  5
53
330
52
100
AcDbEntity
  8
0
100
AcDbBlockBegin
  2
*D11
 70
    1
 10
0
 20
0
  3
*D11
  1

  0
LINE
  5
94
100
AcDbEntity
  8
auxiliary
  6
CONTINUOUS
 62
    7
370
    0
100
AcDbLine
 10
-130
 20
-160
 11
-110
 21
-140
  0
LINE
  5
95
100
AcDbEntity
  8
auxiliary
  6
CONTINUOUS
 62
    7
370
    0
100
AcDbLine
 10
-110
 20
-140
 11
0
 21
-140
  0
LINE
  5
96
100
AcDbEntity
  8
auxiliary
  6
CONTINUOUS
 62
    7
370
    0
100
AcDbLine
 10
0
 20
-140
 11
0
 21
-140
  0
SOLID
  5
97
100
AcDbEntity
  8
auxiliary
  6
CONTINUOUS
 62
    7
370
    0
100
AcDbTrace
 10
-130
 20
-160
 30
0
 11
-126.3164768786218
 21
-154.8446883565463
 31
0
 12
-124.8446883565463
 22
-156.3164768786218
 32
0
 13
-124.8446883565463
 23
-156.3164768786218
 33
0
  0
ENDBLK
  5
54
330
52
100
AcDbEntity
  8
0
100
AcDbBlockEnd
  0
BLOCK
  5
56
330
55
100
AcDbEntity
  8
0
100
AcDbBlockBegin
  2
*D17
 70
    1
 10
0
 20
0
  3
*D17
  1

  0
LINE
  5
98
100
AcDbEntity
  8
dimensions
  6
ByBlock
 62
    0
370
   -2
100
AcDbLine
 10
-140.5802979318033
 20
-211.4507448295082
 11
-215.6433544842963
 21
-399.1083862107406
  0
LINE
  5
99
100
AcDbEntity
  8
dimensions
  6
ByBlock
 62
    0
370
   -2
100
AcDbLine
 10
-90.58029793180329
 20
-231.4507448295082
 11
-165.6433544842963
 21
-419.1083862107406
  0
LINE
  5
9A
100
AcDbEntity
  8
dimensions
  6
ByBlock
 62
    0
370
   -2
100
AcDbLine
 10
-214.4827586206897
 20
-396.2068965517242
 11
-164.4827586206897
 21
-416.2068965517242
  0
SOLID
  5
9B
100
AcDbEntity
  8
dimensions
  6
ByBlock
 62
    0
370
   -2
100
AcDbTrace
 10
-214.4827586206897
 20
-396.2068965517242
 30
0
 11
-208.2932687011416
 21
-397.5618117751492
 31
0
 12
-209.0662899041721
 22
-399.4943647827254
 32
0
 13
-209.0662899041721
 23
-399.4943647827254
 33
0
  0
SOLID
  5
9C
100
AcDbEntity
  8
dimensions
  6
ByBlock
 62
    0
370
   -2
100
AcDbTrace
 10
-164.4827586206897
 20
-416.2068965517242
 30
0
 11
-170.6722485402378
 21
-414.8519813282991
 31
0
 12
-169.8992273372073
 22
-412.9194283207229
 32
0
 13
-169.8992273372073
 23
-412.9194283207229
 33
0
  0
MTEXT
  5
9D
100
AcDbEntity
  8
dimensions
  6
CONTINUOUS
 62
    0
370
   -2
100
AcDbMText
 10
-187.7418648252798
 20
-401.8546620631994
 30
0
 40
6.25
 41
19.79166666666783
 71
    5
 72
    1
  1
53,85
  7
standard
210
0
220
0
230
1
 50
338.1985905136482
 73
    2
 44
1
  0
ENDBLK
  5
57
330
55
100
AcDbEntity
  8
0
100
AcDbBlockEnd
  0
BLOCK
  5
59
330
58
100
AcDbEntity
  8
0
100
AcDbBlockBegin
  2
*D2
 70
    1
 10
0
 20
0
  3
*D2
  1

  0
LINE
  5
9E
100
AcDbEntity
  8
dimensions
  6
ByBlock
 62
    0
370
   -2
100
AcDbLine
 10
10
 20
-220
 11
10
 21
-280
  0
SOLID
  5
9F
100
AcDbEntity
  8
dimensions
  6
ByBlock
 62
    0
370
   -2
100
AcDbTrace
 10
10
 20
-220
 30
0
 11
11.0407116444321
 21
-226.25
 31
0
 12
8.959288355567901
 22
-226.25
 32
0
 13
8.959288355567901
 23
-226.25
 33
0
  0
SOLID
  5
A0
100
AcDbEntity
  8
dimensions
  6
ByBlock
 62
    0
370
   -2
100
AcDbTrace
 10
10
 20
-280
 30
0
 11
8.959288355567899
 21
-273.75
 31
0
 12
11.0407116444321
 22
-273.75
 32
0
 13
11.0407116444321
 23
-273.75
 33
0
  0
MTEXT
  5
A1
100
AcDbEntity
  8
dimensions
  6
CONTINUOUS
 62
    0
370
   -2
100
AcDbMText
 10
5.312500000000002
 20
-250
 30
0
 40
6.25
 41
7.638888888889277
 71
    5
 72
    1
  1
60
  7
standard
210
0
220
0
230
1
 50
90
 73
    2
 44
1
  0
LINE
  5
A2
100
AcDbEntity
  8
dimensions
  6
ByBlock
 62
    0
370
   -2
100
AcDbLine
 10
-18.43753199999998
 20
-220
 11
13.125
 21
-220
  0
LINE
  5
A3
100
AcDbEntity
  8
dimensions
  6
ByBlock
 62
    0
370
   -2
100
AcDbLine
 10
-18.4375
 20
-280
 11
13.125
 21
-280
  0
ENDBLK
  5
5A
330
58
100
AcDbEntity
  8
0
100
AcDbBlockEnd
  0
BLOCK
  5
5C
330
5B
100
AcDbEntity
  8
0
100
AcDbBlockBegin
  2
*D16
 70
    1
 10
0
 20
0
  3
*D16
  1

  0
LINE
  5
A4
100
AcDbEntity
  8
dimensions
  6
ByBlock
 62
    0
370
   -2
100
AcDbLine
 10
-88.4375
 20
-210
 11
53.125
 21
-210
  0
LINE
  5
A5
100
AcDbEntity
  8
dimensions
  6
ByBlock
 62
    0
370
   -2
100
AcDbLine
 10
-88.4375
 20
-230
 11
53.125
 21
-230
  0
LINE
  5
A6
100
AcDbEntity
  8
dimensions
  6
ByBlock
 62
    0
370
   -2
100
AcDbLine
 10
50
 20
-210
 11
50
 21
-230
  0
SOLID
  5
A7
100
AcDbEntity
  8
dimensions
  6
ByBlock
 62
    0
370
   -2
100
AcDbTrace
 10
50
 20
-210
 30
0
 11
51.0407116444321
 21
-216.25
 31
0
 12
48.9592883555679
 22
-216.25
 32
0
 13
48.9592883555679
 23
-216.25
 33
0
  0
SOLID
  5
A8
100
AcDbEntity
  8
dimensions
  6
ByBlock
 62
    0
370
   -2
100
AcDbTrace
 10
50
 20
-230
 30
0
 11
48.9592883555679
 21
-223.75
 31
0
 12
51.0407116444321
 22
-223.75
 32
0
 13
51.0407116444321
 23
-223.75
 33
0
  0
MTEXT
  5
A9
100
AcDbEntity
  8
dimensions
  6
CONTINUOUS
 62
    0
370
   -2
100
AcDbMText
 10
45.3125
 20
-220
 30
0
 40
6.25
 41
7.638888888888888
 71
    5
 72
    1
  1
20
  7
standard
210
0
220
0
230
1
 50
90
 73
    2
 44
1
  0
ENDBLK
  5
5D
330
5B
100
AcDbEntity
  8
0
100
AcDbBlockEnd
  0
BLOCK
  5
5F
330
5E
100
AcDbEntity
  8
0
100
AcDbBlockBegin
  2
*D20
 70
    1
 10
0
 20
0
  3
*D20
  1

  0
LINE
  5
AA
100
AcDbEntity
  8
dimensions
  6
ByBlock
 62
    0
370
   -2
100
AcDbLine
 10
-140
 20
-370
 11
-90
 21
-370
  0
SOLID
  5
AB
100
AcDbEntity
  8
dimensions
  6
ByBlock
 62
    0
370
   -2
100
AcDbTrace
 10
-140
 20
-370
 30
0
 11
-133.75
 21
-368.9592883555679
 31
0
 12
-133.75
 22
-371.0407116444321
 32
0
 13
-133.75
 23
-371.0407116444321
 33
0
  0
SOLID
  5
AC
100
AcDbEntity
  8
dimensions
  6
ByBlock
 62
    0
370
   -2
100
AcDbTrace
 10
-90
 20
-370
 30
0
 11
-96.25
 21
-371.0407116444321
 31
0
 12
-96.25
 22
-368.9592883555679
 32
0
 13
-96.25
 23
-368.9592883555679
 33
0
  0
MTEXT
  5
AD
100
AcDbEntity
  8
dimensions
  6
CONTINUOUS
 62
    0
370
   -2
100
AcDbMText
 10
-115
 20
-365.3125
 30
0
 40
6.25
 41
7.638888888889277
 71
    5
 72
    1
  1
50
  7
standard
210
0
220
0
230
1
 50
0
 73
    2
 44
1
  0
LINE
  5
AE
100
AcDbEntity
  8
dimensions
  6
ByBlock
 62
    0
370
   -2
100
AcDbLine
 10
-140
 20
-281.5625
 11
-140
 21
-373.125
  0
LINE
  5
AF
100
AcDbEntity
  8
dimensions
  6
ByBlock
 62
    0
370
   -2
100
AcDbLine
 10
-90
 20
-281.5625
 11
-90
 21
-373.125
  0
ENDBLK
  5
60
330
5E
100
AcDbEntity
  8
0
100
AcDbBlockEnd
  0
BLOCK
  5
62
330
61
100
AcDbEntity
  8
0
100
AcDbBlockBegin
  2
*D13
 70
    1
 10
0
 20
0
  3
*D13
  1

  0
LINE
  5
B0
100
AcDbEntity
  8
auxiliary
  6
CONTINUOUS
 62
    7
370
    0
100
AcDbLine
 10
-80
 20
-170
 11
-50
 21
-140
  0
SOLID
  5
B1
100
AcDbEntity
  8
auxiliary
  6
CONTINUOUS
 62
    7
370
    0
100
AcDbTrace
 10
-80
 20
-170
 30
0
 11
-76.31647687862181
 21
-164.8446883565463
 31
0
 12
-74.84468835654633
 22
-166.3164768786218
 32
0
 13
-74.84468835654633
 23
-166.3164768786218
 33
0
  0
ENDBLK
  5
63
330
61
100
AcDbEntity
  8
0
100
AcDbBlockEnd
  0
BLOCK
  5
65
330
64
100
AcDbEntity
  8
0
100
AcDbBlockBegin
  2
*D18
 70
    1
 10
0
 20
0
  3
*D18
  1

  0
LINE
  5
B2
100
AcDbEntity
  8
dimensions
  6
ByBlock
 62
    0
370
   -2
100
AcDbLine
 10
-209.9999991294643
 20
-301.5624999999998
 11
-209.9999704017657
 21
-353.1250389999818
  0
LINE
  5
B3
100
AcDbEntity
  8
dimensions
  6
ByBlock
 62
    0
370
   -2
100
AcDbLine
 10
-139.9999991294643
 20
-301.562461000002
 11
-139.9999704017657
 21
-353.124999999984
  0
LINE
  5
B4
100
AcDbEntity
  8
dimensions
  6
ByBlock
 62
    0
370
   -2
100
AcDbLine
 10
-209.999972142837
 20
-350.0000389999823
 11
-139.999972142837
 21
-349.9999999999845
  0
SOLID
  5
B5
100
AcDbEntity
  8
dimensions
  6
ByBlock
 62
    0
370
   -2
100
AcDbTrace
 10
-209.999972142837
 20
-350.0000389999823
 30
0
 11
-203.749972722663
 21
-348.9593238734077
 31
0
 12
-203.749971563013
 22
-351.0407471622715
 32
0
 13
-203.749971563013
 23
-351.0407471622715
 33
0
  0
SOLID
  5
B6
100
AcDbEntity
  8
dimensions
  6
ByBlock
 62
    0
370
   -2
100
AcDbTrace
 10
-139.999972142837
 20
-349.9999999999845
 30
0
 11
-146.249971563011
 21
-351.0407151265591
 31
0
 12
-146.2499727226611
 22
-348.9592918376952
 32
0
 13
-146.2499727226611
 23
-348.9592918376952
 33
0
  0
MTEXT
  5
B7
100
AcDbEntity
  8
dimensions
  6
CONTINUOUS
 62
    0
370
   -2
100
AcDbMText
 10
-174.999974754444
 20
-345.3125194999841
 30
0
 40
6.25
 41
7.638888888888888
 71
    5
 72
    1
  1
70
  7
standard
210
0
220
0
230
1
 50
3.192193249587183e-05
 73
    2
 44
1
  0
ENDBLK
  5
66
330
64
100
AcDbEntity
  8
0
100
AcDbBlockEnd
  0
BLOCK
  5
68
330
67
100
AcDbEntity
  8
0
100
AcDbBlockBegin
  2
*D9
 70
    1
 10
0
 20
0
  3
*D9
  1

  0
LINE
  5
B8
100
AcDbEntity
  8
auxiliary
  6
ByBlock
 62
    0
370
   -2
100
AcDbLine
 10
-90
 20
-208.4375
 11
-90
 21
-176.875
  0
LINE
  5
B9
100
AcDbEntity
  8
auxiliary
  6
ByBlock
 62
    0
370
   -2
100
AcDbLine
 10
-80
 20
-208.4375
 11
-80
 21
-176.875
  0
LINE
  5
BA
100
AcDbEntity
  8
auxiliary
  6
ByBlock
 62
    0
370
   -2
100
AcDbLine
 10
-102.5
 20
-180
 11
-67.5
 21
-180
  0
SOLID
  5
BB
100
AcDbEntity
  8
auxiliary
  6
ByBlock
 62
    0
370
   -2
100
AcDbTrace
 10
-90
 20
-180
 30
0
 11
-96.25
 21
-181.0407116444321
 31
0
 12
-96.25
 22
-178.9592883555679
 32
0
 13
-96.25
 23
-178.9592883555679
 33
0
  0
SOLID
  5
BC
100
AcDbEntity
  8
auxiliary
  6
ByBlock
 62
    0
370
   -2
100
AcDbTrace
 10
-80
 20
-180
 30
0
 11
-73.75
 21
-178.9592883555679
 31
0
 12
-73.75
 22
-181.0407116444321
 32
0
 13
-73.75
 23
-181.0407116444321
 33
0
  0
MTEXT
  5
BD
100
AcDbEntity
  8
auxiliary
  6
CONTINUOUS
 62
    0
370
   -2
100
AcDbMText
 10
-85
 20
-175.3125
 30
0
 40
6.25
 41
6.25
 71
    5
 72
    1
  1
10
  7
standard
210
0
220
0
230
1
 50
0
 73
    2
 44
1
  0
ENDBLK
  5
69
330
67
100
AcDbEntity
  8
0
100
AcDbBlockEnd
  0
BLOCK
  5
6B
330
6A
100
AcDbEntity
  8
0
100
AcDbBlockBegin
  2
*D7
 70
    1
 10
0
 20
0
  3
*D7
  1

  0
LINE
  5
BE
100
AcDbEntity
  8
dimensions
  6
ByBlock
 62
    0
370
   -2
100
AcDbLine
 10
-70
 20
-230
 11
-70
 21
-270
  0
SOLID
  5
BF
100
AcDbEntity
  8
dimensions
  6
ByBlock
 62
    0
370
   -2
100
AcDbTrace
 10
-70
 20
-230
 30
0
 11
-68.95928835556789
 21
-236.25
 31
0
 12
-71.04071164443211
 22
-236.25
 32
0
 13
-71.04071164443211
 23
-236.25
 33
0
  0
SOLID
  5
C0
100
AcDbEntity
  8
dimensions
  6
ByBlock
 62
    0
370
   -2
100
AcDbTrace
 10
-70
 20
-270
 30
0
 11
-71.04071164443209
 21
-263.75
 31
0
 12
-68.95928835556789
 22
-263.75
 32
0
 13
-68.95928835556789
 23
-263.75
 33
0
  0
MTEXT
  5
C1
100
AcDbEntity
  8
dimensions
  6
CONTINUOUS
 62
    0
370
   -2
100
AcDbMText
 10
-74.6875
 20
-250
 30
0
 40
6.25
 41
8.333333333333332
 71
    5
 72
    1
  1
40
  7
standard
210
0
220
0
230
1
 50
90
 73
    2
 44
1
  0
LINE
  5
C2
100
AcDbEntity
  8
dimensions
  6
ByBlock
 62
    0
370
   -2
100
AcDbLine
 10
-88.4375
 20
-230
 11
-66.875
 21
-230
  0
LINE
  5
C3
100
AcDbEntity
  8
dimensions
  6
ByBlock
 62
    0
370
   -2
100
AcDbLine
 10
-88.4375
 20
-270
 11
-66.875
 21
-270
  0
ENDBLK
  5
6C
330
6A
100
AcDbEntity
  8
0
100
AcDbBlockEnd
  0
BLOCK
  5
6E
330
6D
100
AcDbEntity
  8
0
100
AcDbBlockBegin
  2
*D6
 70
    1
 10
0
 20
0
  3
*D6
  1

  0
LINE
  5
C4
100
AcDbEntity
  8
dimensions
  6
ByBlock
 62
    0
370
   -2
100
AcDbLine
 10
-150
 20
-210
 11
-150
 21
-290
  0
SOLID
  5
C5
100
AcDbEntity
  8
dimensions
  6
ByBlock
 62
    0
370
   -2
100
AcDbTrace
 10
-150
 20
-210
 30
0
 11
-148.9592883555679
 21
-216.25
 31
0
 12
-151.0407116444321
 22
-216.25
 32
0
 13
-151.0407116444321
 23
-216.25
 33
0
  0
SOLID
  5
C6
100
AcDbEntity
  8
dimensions
  6
ByBlock
 62
    0
370
   -2
100
AcDbTrace
 10
-150
 20
-290
 30
0
 11
-151.0407116444321
 21
-283.75
 31
0
 12
-148.9592883555679
 22
-283.75
 32
0
 13
-148.9592883555679
 23
-283.75
 33
0
  0
MTEXT
  5
C7
100
AcDbEntity
  8
dimensions
  6
CONTINUOUS
 62
    0
370
   -2
100
AcDbMText
 10
-154.6875
 20
-250
 30
0
 40
6.25
 41
7.638888888888888
 71
    5
 72
    1
  1
80
  7
standard
210
0
220
0
230
1
 50
90
 73
    2
 44
1
  0
LINE
  5
C8
100
AcDbEntity
  8
dimensions
  6
ByBlock
 62
    0
370
   -2
100
AcDbLine
 10
-141.5625
 20
-210
 11
-153.125
 21
-210
  0
LINE
  5
C9
100
AcDbEntity
  8
dimensions
  6
ByBlock
 62
    0
370
   -2
100
AcDbLine
 10
-141.5625
 20
-290
 11
-153.125
 21
-290
  0
ENDBLK
  5
6F
330
6D
100
AcDbEntity
  8
0
100
AcDbBlockEnd
  0
BLOCK
  5
71
330
70
100
AcDbEntity
  8
0
100
AcDbBlockBegin
  2
*D15
 70
    1
 10
0
 20
0
  3
*D15
  1

  0
LINE
  5
CA
100
AcDbEntity
  8
dimensions
  6
ByBlock
 62
    0
370
   -2
100
AcDbLine
 10
-18.895145654396
 20
-78.89514565439602
 11
-61.30499860490026
 21
-121.3049986049003
  0
LINE
  5
CB
100
AcDbEntity
  8
dimensions
  6
ByBlock
 62
    0
370
   -2
100
AcDbLine
 10
-140
 20
-68.4375
 11
-140
 21
-88.70846173608032
  0
ARC
  5
CC
100
AcDbEntity
  8
dimensions
  6
ByBlock
 62
    0
370
   -2
100
AcDbCircle
 10
-140
 20
-200
 40
108.1665382639197
100
AcDbArc
 50
45
 51
90
  0
SOLID
  5
CD
100
AcDbEntity
  8
dimensions
  6
ByBlock
 62
    0
370
   -2
100
AcDbTrace
 10
-63.51470729610823
 20
-123.5147072961082
 30
0
 11
-68.77427211959986
 21
-119.9816408384335
 31
0
 12
-67.34561277319847
 22
-118.4679515112048
 32
0
 13
-67.34561277319847
 23
-118.4679515112048
 33
0
  0
SOLID
  5
CE
100
AcDbEntity
  8
dimensions
  6
ByBlock
 62
    0
370
   -2
100
AcDbTrace
 10
-140
 20
-91.83346173608032
 30
0
 11
-133.7225455205671
 21
-90.97372573851787
 31
0
 12
-133.7826707966143
 22
-93.05428043825697
 32
0
 13
-133.7826707966143
 23
-93.05428043825697
 33
0
  0
MTEXT
  5
CF
100
AcDbEntity
  8
dimensions
  6
CONTINUOUS
 62
    0
370
   -2
100
AcDbMText
 10
-98.00851500704293
 20
-98.62358742581681
 30
0
 40
6.25
 41
12.50000000000039
 71
    8
 72
    1
  1
45%%D
  7
standard
210
0
220
0
230
1
 50
337.4999999999999
 73
    2
 44
1
  0
ENDBLK
  5
72
330
70
100
AcDbEntity
  8
0
100
AcDbBlockEnd
  0
BLOCK
  5
74
330
73
100
AcDbEntity
  8
0
100
AcDbBlockBegin
  2
*D19
 70
    1
 10
0
 20
0
  3
*D19
  1

  0
LINE
  5
D0
100
AcDbEntity
  8
dimensions
  6
ByBlock
 62
    0
370
   -2
100
AcDbLine
 10
-89.99999999998018
 20
-281.5625
 11
-89.99999999907217
 21
-353.1250000010151
  0
LINE
  5
D1
100
AcDbEntity
  8
dimensions
  6
ByBlock
 62
    0
370
   -2
100
AcDbLine
 10
-19.99999999998018
 20
-281.5624999991118
 11
-19.99999999907217
 21
-353.1250000001269
  0
LINE
  5
D2
100
AcDbEntity
  8
dimensions
  6
ByBlock
 62
    0
370
   -2
100
AcDbLine
 10
-89.99999999911182
 20
-350.0000000010151
 11
-19.99999999911182
 21
-350.0000000001269
  0
SOLID
  5
D3
100
AcDbEntity
  8
dimensions
  6
ByBlock
 62
    0
370
   -2
100
AcDbTrace
 10
-89.99999999911182
 20
-350.0000000010151
 30
0
 11
-83.74999999912502
 21
-348.9592883565036
 31
0
 12
-83.74999999909862
 22
-351.0407116453679
 32
0
 13
-83.74999999909862
 23
-351.0407116453679
 33
0
  0
SOLID
  5
D4
100
AcDbEntity
  8
dimensions
  6
ByBlock
 62
    0
370
   -2
100
AcDbTrace
 10
-19.99999999911182
 20
-350.0000000001269
 30
0
 11
-26.24999999909861
 21
-351.0407116446383
 31
0
 12
-26.24999999912502
 22
-348.959288355774
 32
0
 13
-26.24999999912502
 23
-348.959288355774
 33
0
  0
MTEXT
  5
D5
100
AcDbEntity
  8
dimensions
  6
CONTINUOUS
 62
    0
370
   -2
100
AcDbMText
 10
-54.99999999917135
 20
-345.3125000005709
 30
0
 40
6.25
 41
7.638888888888888
 71
    5
 72
    1
  1
70
  7
standard
210
0
220
0
230
1
 50
7.269730224327531e-10
 73
    2
 44
1
  0
ENDBLK
  5
75
330
73
100
AcDbEntity
  8
0
100
AcDbBlockEnd
  0
BLOCK
  5
77
330
76
100
AcDbEntity
  8
0
100
AcDbBlockBegin
  2
*D14
 70
    1
 10
0
 20
0
  3
*D14
  1

  0
LINE
  5
D6
100
AcDbEntity
  8
auxiliary
  6
ByBlock
 62
    0
370
   -2
100
AcDbLine
 10
-131.104854345604
 20
-188.895145654396
 11
-202.209708691208
 21
-117.790291308792
  0
LINE
  5
D7
100
AcDbEntity
  8
auxiliary
  6
ByBlock
 62
    0
370
   -2
100
AcDbLine
 10
-141.104854345604
 20
-198.895145654396
 11
-212.209708691208
 21
-127.790291308792
  0
LINE
  5
D8
100
AcDbEntity
  8
auxiliary
  6
ByBlock
 62
    0
370
   -2
100
AcDbLine
 10
-191.1611652351682
 20
-111.1611652351681
 11
-218.8388347648318
 21
-138.8388347648319
  0
SOLID
  5
D9
100
AcDbEntity
  8
auxiliary
  6
ByBlock
 62
    0
370
   -2
100
AcDbTrace
 10
-200
 20
-120
 30
0
 11
-196.3164768786218
 21
-114.8446883565463
 31
0
 12
-194.8446883565463
 22
-116.3164768786218
 32
0
 13
-194.8446883565463
 23
-116.3164768786218
 33
0
  0
SOLID
  5
DA
100
AcDbEntity
  8
auxiliary
  6
ByBlock
 62
    0
370
   -2
100
AcDbTrace
 10
-210
 20
-130
 30
0
 11
-213.6835231213782
 21
-135.1553116434537
 31
0
 12
-215.1553116434537
 22
-133.6835231213782
 32
0
 13
-215.1553116434537
 23
-133.6835231213782
 33
0
  0
MTEXT
  5
DB
100
AcDbEntity
  8
auxiliary
  6
CONTINUOUS
 62
    0
370
   -2
100
AcDbMText
 10
-195.70334421154
 20
-109.0742181379162
 30
0
 40
6.25
 41
18.40277777777778
 71
    5
 72
    1
  1
14,14
  7
standard
210
0
220
0
230
1
 50
45.00000000000005
 73
    2
 44
1
  0
ENDBLK
  5
78
330
76
100
AcDbEntity
  8
0
100
AcDbBlockEnd
  0
BLOCK
  5
7A
330
79
100
AcDbEntity
  8
0
100
AcDbBlockBegin
  2
*D21
 70
    1
 10
0
 20
0
  3
*D21
  1

  0
LINE
  5
DC
100
AcDbEntity
  8
dimensions
  6
ByBlock
 62
    0
370
   -2
100
AcDbLine
 10
-211.5625
 20
-190
 11
-373.125
 21
-190
  0
LINE
  5
DD
100
AcDbEntity
  8
dimensions
  6
ByBlock
 62
    0
370
   -2
100
AcDbLine
 10
-211.5625
 20
-310
 11
-373.125
 21
-310
  0
LINE
  5
DE
100
AcDbEntity
  8
dimensions
  6
ByBlock
 62
    0
370
   -2
100
AcDbLine
 10
-370
 20
-190
 11
-370
 21
-310
  0
SOLID
  5
DF
100
AcDbEntity
  8
dimensions
  6
ByBlock
 62
    0
370
   -2
100
AcDbTrace
 10
-370
 20
-190
 30
0
 11
-368.9592883555679
 21
-196.25
 31
0
 12
-371.0407116444321
 22
-196.25
 32
0
 13
-371.0407116444321
 23
-196.25
 33
0
  0
SOLID
  5
E0
100
AcDbEntity
  8
dimensions
  6
ByBlock
 62
    0
370
   -2
100
AcDbTrace
 10
-370
 20
-310
 30
0
 11
-371.0407116444321
 21
-303.75
 31
0
 12
-368.9592883555679
 22
-303.75
 32
0
 13
-368.9592883555679
 23
-303.75
 33
0
  0
MTEXT
  5
E1
100
AcDbEntity
  8
dimensions
  6
CONTINUOUS
 62
    0
370
   -2
100
AcDbMText
 10
-374.6875
 20
-250
 30
0
 40
6.25
 41
11.11111111111111
 71
    5
 72
    1
  1
120
  7
standard
210
0
220
0
230
1
 50
90
 73
    2
 44
1
  0
ENDBLK
  5
7B
330
79
100
AcDbEntity
  8
0
100
AcDbBlockEnd
  0
BLOCK
  5
7D
330
7C
100
AcDbEntity
  8
0
100
AcDbBlockBegin
  2
*D4
 70
    1
 10
0
 20
0
  3
*D4
  1

  0
LINE
  5
E2
100
AcDbEntity
  8
dimensions
  6
CONTINUOUS
 62
    7
370
    0
100
AcDbLine
 10
-170
 20
-260
 11
-180
 21
-260
  0
LINE
  5
E3
100
AcDbEntity
  8
dimensions
  6
CONTINUOUS
 62
    7
370
    0
100
AcDbLine
 10
-180
 20
-260
 11
-280
 21
-370
  0
LINE
  5
E4
100
AcDbEntity
  8
dimensions
  6
CONTINUOUS
 62
    7
370
    0
100
AcDbLine
 10
-280
 20
-370
 11
-370
 21
-370
  0
LINE
  5
E5
100
AcDbEntity
  8
dimensions
  6
CONTINUOUS
 62
    7
370
    0
100
AcDbLine
 10
-370
 20
-370
 11
-370
 21
-370
  0
SOLID
  5
E6
100
AcDbEntity
  8
dimensions
  6
CONTINUOUS
 62
    7
370
    0
100
AcDbTrace
 10
-170
 20
-260
 30
0
 11
-176.25
 21
-261.0407116444321
 31
0
 12
-176.25
 22
-258.9592883555679
 32
0
 13
-176.25
 23
-258.9592883555679
 33
0
  0
ENDBLK
  5
7E
330
7C
100
AcDbEntity
  8
0
100
AcDbBlockEnd
  0
BLOCK
  5
80
330
7F
100
AcDbEntity
  8
0
100
AcDbBlockBegin
  2
*D5
 70
    1
 10
0
 20
0
  3
*D5
  1

  0
LINE
  5
E7
100
AcDbEntity
  8
dimensions
  6
CONTINUOUS
 62
    7
370
    0
100
AcDbLine
 10
-60
 20
-260
 11
-40
 21
-260
  0
LINE
  5
E8
100
AcDbEntity
  8
dimensions
  6
CONTINUOUS
 62
    7
370
    0
100
AcDbLine
 10
-40
 20
-260
 11
10
 21
-370
  0
LINE
  5
E9
100
AcDbEntity
  8
dimensions
  6
CONTINUOUS
 62
    7
370
    0
100
AcDbLine
 10
10
 20
-370
 11
150
 21
-370
  0
LINE
  5
EA
100
AcDbEntity
  8
dimensions
  6
CONTINUOUS
 62
    7
370
    0
100
AcDbLine
 10
150
 20
-370
 11
150
 21
-370
  0
SOLID
  5
EB
100
AcDbEntity
  8
dimensions
  6
CONTINUOUS
 62
    7
370
    0
100
AcDbTrace
 10
-60
 20
-260
 30
0
 11
-53.75
 21
-258.9592883555679
 31
0
 12
-53.75
 22
-261.0407116444321
 32
0
 13
-53.75
 23
-261.0407116444321
 33
0
  0
ENDBLK
  5
81
330
7F
100
AcDbEntity
  8
0
100
AcDbBlockEnd
  0
BLOCK
  5
83
330
82
100
AcDbEntity
  8
0
100
AcDbBlockBegin
  2
*D12
 70
    1
 10
0
 20
0
  3
*D12
  1

  0
ENDBLK
  5
84
330
82
100
AcDbEntity
  8
0
100
AcDbBlockEnd
  0
BLOCK
  5
86
330
85
100
AcDbEntity
  8
0
100
AcDbBlockBegin
  2
*D8
 70
    1
 10
0
 20
0
  3
*D8
  1

  0
ENDBLK
  5
87
330
85
100
AcDbEntity
  8
0
100
AcDbBlockEnd
  0
BLOCK
  5
89
330
88
100
AcDbEntity
  8
0
100
AcDbBlockBegin
  2
*D1
 70
    1
 10
0
 20
0
  3
*D1
  1

  0
LINE
  5
EC
100
AcDbEntity
  8
dimensions
  6
ByBlock
 62
    0
370
   -2
100
AcDbLine
 10
-250
 20
-200
 11
-250
 21
-300
  0
SOLID
  5
ED
100
AcDbEntity
  8
dimensions
  6
ByBlock
 62
    0
370
   -2
100
AcDbTrace
 10
-250
 20
-200
 30
0
 11
-248.9592883555679
 21
-206.25
 31
0
 12
-251.0407116444321
 22
-206.25
 32
0
 13
-251.0407116444321
 23
-206.25
 33
0
  0
SOLID
  5
EE
100
AcDbEntity
  8
dimensions
  6
ByBlock
 62
    0
370
   -2
100
AcDbTrace
 10
-250
 20
-300
 30
0
 11
-251.0407116444321
 21
-293.75
 31
0
 12
-248.9592883555679
 22
-293.75
 32
0
 13
-248.9592883555679
 23
-293.75
 33
0
  0
MTEXT
  5
EF
100
AcDbEntity
  8
dimensions
  6
CONTINUOUS
 62
    0
370
   -2
100
AcDbMText
 10
-254.6875
 20
-250
 30
0
 40
6.25
 41
11.11111111111111
 71
    5
 72
    1
  1
100
  7
standard
210
0
220
0
230
1
 50
90
 73
    2
 44
1
  0
LINE
  5
F0
100
AcDbEntity
  8
dimensions
  6
ByBlock
 62
    0
370
   -2
100
AcDbLine
 10
-211.5625
 20
-200
 11
-253.125
 21
-200
  0
LINE
  5
F1
100
AcDbEntity
  8
dimensions
  6
ByBlock
 62
    0
370
   -2
100
AcDbLine
 10
-211.5625
 20
-300
 11
-253.125
 21
-300
  0
ENDBLK
  5
8A
330
88
100
AcDbEntity
  8
0
100
AcDbBlockEnd
  0
BLOCK
  5
8C
330
8B
100
AcDbEntity
  8
0
100
AcDbBlockBegin
  2
*D3
 70
    1
 10
0
 20
0
  3
*D3
  1

  0
ENDBLK
  5
8D
330
8B
100
AcDbEntity
  8
0
100
AcDbBlockEnd
  0
BLOCK
  5
8F
330
8E
100
AcDbEntity
  8
0
100
AcDbBlockBegin
  2
*D22
 70
    1
 10
0
 20
0
  3
*D22
  1

  0
LINE
  5
F2
100
AcDbEntity
  8
dimensions
  6
ByBlock
 62
    0
370
   -2
100
AcDbLine
 10
-18.4375
 20
-210
 11
143.125
 21
-210
  0
LINE
  5
F3
100
AcDbEntity
  8
dimensions
  6
ByBlock
 62
    0
370
   -2
100
AcDbLine
 10
-18.4375
 20
-290
 11
143.125
 21
-290
  0
LINE
  5
F4
100
AcDbEntity
  8
dimensions
  6
ByBlock
 62
    0
370
   -2
100
AcDbLine
 10
140
 20
-210
 11
140
 21
-290
  0
SOLID
  5
F5
100
AcDbEntity
  8
dimensions
  6
ByBlock
 62
    0
370
   -2
100
AcDbTrace
 10
140
 20
-210
 30
0
 11
141.0407116444321
 21
-216.25
 31
0
 12
138.9592883555679
 22
-216.25
 32
0
 13
138.9592883555679
 23
-216.25
 33
0
  0
SOLID
  5
F6
100
AcDbEntity
  8
dimensions
  6
ByBlock
 62
    0
370
   -2
100
AcDbTrace
 10
140
 20
-290
 30
0
 11
138.9592883555679
 21
-283.75
 31
0
 12
141.0407116444321
 22
-283.75
 32
0
 13
141.0407116444321
 23
-283.75
 33
0
  0
MTEXT
  5
F7
100
AcDbEntity
  8
dimensions
  6
CONTINUOUS
 62
    0
370
   -2
100
AcDbMText
 10
135.3125
 20
-250
 30
0
 40
6.25
 41
7.638888888888888
 71
    5
 72
    1
  1
80
  7
standard
210
0
220
0
230
1
 50
90
 73
    2
 44
1
  0
ENDBLK
  5
90
330
8E
100
AcDbEntity
  8
0
100
AcDbBlockEnd
  0
BLOCK
  5
92
330
91
100
AcDbEntity
  8
0
100
AcDbBlockBegin
  2
*D10
 70
    1
 10
0
 20
0
  3
*D10
  1

  0
LINE
  5
F8
100
AcDbEntity
  8
auxiliary
  6
ByBlock
 62
    0
370
   -2
100
AcDbLine
 10
-152.5
 20
-170
 11
-117.5
 21
-170
  0
SOLID
  5
F9
100
AcDbEntity
  8
auxiliary
  6
ByBlock
 62
    0
370
   -2
100
AcDbTrace
 10
-140
 20
-170
 30
0
 11
-146.25
 21
-171.0407116444321
 31
0
 12
-146.25
 22
-168.9592883555679
 32
0
 13
-146.25
 23
-168.9592883555679
 33
0
  0
SOLID
  5
FA
100
AcDbEntity
  8
auxiliary
  6
ByBlock
 62
    0
370
   -2
100
AcDbTrace
 10
-130
 20
-170
 30
0
 11
-123.75
 21
-168.9592883555679
 31
0
 12
-123.75
 22
-171.0407116444321
 32
0
 13
-123.75
 23
-171.0407116444321
 33
0
  0
MTEXT
  5
FB
100
AcDbEntity
  8
auxiliary
  6
CONTINUOUS
 62
    0
370
   -2
100
AcDbMText
 10
-135
 20
-165.3125
 30
0
 40
6.25
 41
6.25
 71
    5
 72
    1
  1
10
  7
standard
210
0
220
0
230
1
 50
0
 73
    2
 44
1
  0
LINE
  5
FC
100
AcDbEntity
  8
auxiliary
  6
ByBlock
 62
    0
370
   -2
100
AcDbLine
 10
-140
 20
-188.4375
 11
-140
 21
-166.875
  0
LINE
  5
FD
100
AcDbEntity
  8
auxiliary
  6
ByBlock
 62
    0
370
   -2
100
AcDbLine
 10
-130
 20
-188.4375
 11
-130
 21
-166.875
  0
ENDBLK
  5
93
330
91
100
AcDbEntity
  8
0
100
AcDbBlockEnd
  0
ENDSEC
  0
SECTION
  2
ENTITIES
  0
HATCH
  5
FE
100
AcDbEntity
  8
triangle
  6
ByLayer
 62
    5
370
   -1
100
AcDbHatch
 10
0
 20
0
 30
0
210
0
220
0
230
1
  2
SOLID
 70
    1
 71
    0
 91
    1
 92
    0
 93
    3
 72
    1
 10
-140
 20
-210
 11
-90
 21
-210
 72
    1
 10
-90
 20
-210
 11
-90
 21
-230
 72
    1
 10
-90
 20
-230
 11
-140
 21
-210
 97
    0
 75
    0
 76
    1
 98
    0
  0
HATCH
  5
FF
100
AcDbEntity
  8
out-part
  6
ByLayer
 62
  256
370
   -1
100
AcDbHatch
 10
0
 20
0
 30
0
210
0
220
0
230
1
  2
ansi31
 70
    0
 71
    0
 91
    1
 92
    0
 93
   10
 72
    1
 10
-210
 20
-190
 11
-130
 21
-190
 72
    1
 10
-130
 20
-190
 11
-80
 21
-210
 72
    1
 10
-80
 20
-210
 11
-20
 21
-210
 72
    1
 10
-20
 20
-210
 11
-20
 21
-220
 72
    1
 10
-20
 20
-220
 11
-90
 21
-220
 72
    1
 10
-90
 20
-220
 11
-90
 21
-230
 72
    1
 10
-90
 20
-230
 11
-140
 21
-210
 72
    1
 10
-140
 20
-210
 11
-140
 21
-200
 72
    1
 10
-140
 20
-200
 11
-210
 21
-200
 72
    1
 10
-210
 20
-200
 11
-210
 21
-190
 97
    0
 75
    0
 76
    1
 52
0
 41
4
 77
    0
 78
    0
 98
    0
  0
HATCH
  5
100
100
AcDbEntity
  8
0
  6
DASHED2
 62
  256
370
   -1
100
AcDbHatch
 10
0
 20
0
 30
0
210
0
220
0
230
1
  2
ansi31
 70
    0
 71
    0
 91
    1
 92
    0
 93
   10
 72
    1
 10
-210
 20
-200
 11
-210
 21
-190
 72
    1
 10
-210
 20
-190
 11
-130
 21
-190
 72
    1
 10
-130
 20
-190
 11
-80
 21
-210
 72
    1
 10
-80
 20
-210
 11
-20
 21
-210
 72
    1
 10
-20
 20
-210
 11
-20
 21
-220
 72
    1
 10
-20
 20
-220
 11
-90
 21
-220
 72
    1
 10
-90
 20
-220
 11
-90
 21
-230
 72
    1
 10
-90
 20
-230
 11
-140
 21
-210
 72
    1
 10
-140
 20
-210
 11
-140
 21
-200
 72
    1
 10
-140
 20
-200
 11
-210
 21
-200
 97
    0
 75
    0
 76
    1
 52
0
 41
4
 77
    0
 78
    0
 98
    0
  0
HATCH
  5
101
100
AcDbEntity
  8
0
  6
DASHDOT2
 62
  256
370
   -1
100
AcDbHatch
 10
0
 20
0
 30
0
210
0
220
0
230
1
  2
ansi31
 70
    0
 71
    0
 91
    1
 92
    0
 93
   10
 72
    1
 10
-210
 20
-200
 11
-210
 21
-190
 72
    1
 10
-210
 20
-190
 11
-130
 21
-190
 72
    1
 10
-130
 20
-190
 11
-80
 21
-210
 72
    1
 10
-80
 20
-210
 11
-20
 21
-210
 72
    1
 10
-20
 20
-210
 11
-20
 21
-220
 72
    1
 10
-20
 20
-220
 11
-90
 21
-220
 72
    1
 10
-90
 20
-220
 11
-90
 21
-230
 72
    1
 10
-90
 20
-230
 11
-140
 21
-210
 72
    1
 10
-140
 20
-210
 11
-140
 21
-200
 72
    1
 10
-140
 20
-200
 11
-210
 21
-200
 97
    0
 75
    0
 76
    1
 52
0
 41
4
 77
    0
 78
    0
 98
    0
  0
HATCH
  5
102
100
AcDbEntity
  8
out-part
  6
ByLayer
 62
  256
370
   -1
100
AcDbHatch
 10
0
 20
0
 30
0
210
0
220
0
230
1
  2
ansi31
 70
    0
 71
    0
 91
    1
 92
    0
 93
   10
 72
    1
 10
-210
 20
-310
 11
-210
 21
-300
 72
    1
 10
-210
 20
-300
 11
-140
 21
-300
 72
    1
 10
-140
 20
-300
 11
-140
 21
-290
 72
    1
 10
-140
 20
-290
 11
-90
 21
-270
 72
    1
 10
-90
 20
-270
 11
-90
 21
-280
 72
    1
 10
-90
 20
-280
 11
-20
 21
-280
 72
    1
 10
-20
 20
-280
 11
-20
 21
-290
 72
    1
 10
-20
 20
-290
 11
-80
 21
-290
 72
    1
 10
-80
 20
-290
 11
-130
 21
-310
 72
    1
 10
-130
 20
-310
 11
-210
 21
-310
 97
    0
 75
    0
 76
    1
 52
0
 41
4
 77
    0
 78
    0
 98
    0
  0
LINE
  5
103
100
AcDbEntity
  8
out-part
  6
ByLayer
 62
  256
370
   -1
100
AcDbLine
 10
-210
 20
-310
 11
-210
 21
-300
  0
LINE
  5
104
100
AcDbEntity
  8
out-part
  6
ByLayer
 62
  256
370
   -1
100
AcDbLine
 10
-210
 20
-300
 11
-140
 21
-300
  0
LINE
  5
105
100
AcDbEntity
  8
out-part
  6
ByLayer
 62
  256
370
   -1
100
AcDbLine
 10
-140
 20
-300
 11
-140
 21
-290
  0
LINE
  5
106
100
AcDbEntity
  8
out-part
  6
ByLayer
 62
  256
370
   -1
100
AcDbLine
 10
-130
 20
-310
 11
-210
 21
-310
  0
LINE
  5
107
100
AcDbEntity
  8
out-part
  6
ByLayer
 62
  256
370
   -1
100
AcDbLine
 10
-80
 20
-290
 11
-130
 21
-310
  0
LINE
  5
108
100
AcDbEntity
  8
out-part
  6
ByLayer
 62
  256
370
   -1
100
AcDbLine
 10
-20
 20
-280
 11
-20
 21
-290
  0
LINE
  5
109
100
AcDbEntity
  8
out-part
  6
ByLayer
 62
  256
370
   -1
100
AcDbLine
 10
-90
 20
-270
 11
-90
 21
-280
  0
LINE
  5
10A
100
AcDbEntity
  8
out-part
  6
ByLayer
 62
  256
370
   -1
100
AcDbLine
 10
-20
 20
-290
 11
-80
 21
-290
  0
LINE
  5
10B
100
AcDbEntity
  8
out-part
  6
ByLayer
 62
  256
370
   -1
100
AcDbLine
 10
-140
 20
-290
 11
-90
 21
-270
  0
LINE
  5
10C
100
AcDbEntity
  8
internal
  6
ByLayer
 62
  256
370
   -1
100
AcDbLine
 10
-210
 20
-200
 11
-210
 21
-300
  0
LINE
  5
10D
100
AcDbEntity
  8
internal
  6
ByLayer
 62
  256
370
   -1
100
AcDbLine
 10
-140
 20
-210
 11
-140
 21
-290
  0
LINE
  5
10E
100
AcDbEntity
  8
internal
  6
ByLayer
 62
  256
370
   -1
100
AcDbLine
 10
-90
 20
-230
 11
-90
 21
-270
  0
LINE
  5
10F
100
AcDbEntity
  8
internal
  6
ByLayer
 62
  256
370
   -1
100
AcDbLine
 10
-20.00003199999998
 20
-220
 11
-20
 21
-280
  0
DIMENSION
  5
110
100
AcDbEntity
  8
dimensions
  6
ByLayer
 62
  256
370
   -1
100
AcDbDimension
  2
*D1
 10
-250
 20
-300
 30
0
 11
-254.6875
 21
-250
 31
0
 70
   32
 71
    5
 72
    0
  3
Standard
 53
0
210
0
220
0
230
1
100
AcDbAlignedDimension
 13
-210
 23
-200
 33
0
 14
-210
 24
-300
 34
0
 50
90
100
AcDbRotatedDimension
  0
DIMENSION
  5
111
100
AcDbEntity
  8
dimensions
  6
ByLayer
 62
  256
370
   -1
100
AcDbDimension
  2
*D2
 10
10
 20
-280
 30
0
 11
5.312500000000002
 21
-250
 31
0
 70
   32
 71
    5
 72
    0
  3
Standard
 53
0
210
0
220
0
230
1
100
AcDbAlignedDimension
 13
-20.00003199999998
 23
-220
 33
0
 14
-20
 24
-280
 34
0
 50
90
100
AcDbRotatedDimension
  0
LEADER
  5
112
100
AcDbEntity
  8
dimensions
  6
ByLayer
 62
  256
370
   -1
100
AcDbLeader
  3
Standard
 71
    1
 72
    0
 73
    3
 74
    0
 75
    0
 40
1
 41
10
 76
0
 76
0
  0
LEADER
  5
113
100
AcDbEntity
  8
dimensions
  6
ByLayer
 62
  256
370
   -1
100
AcDbLeader
  3
Standard
 71
    1
 72
    0
 73
    3
 74
    0
 75
    0
 40
1
 41
10
 76
5
 76
5
 10
-170
 20
-260
 30
0
 10
-180
 20
-260
 30
0
 10
-280
 20
-370
 30
0
 10
-370
 20
-370
 30
0
 10
-370
 20
-370
 30
0
  0
LEADER
  5
114
100
AcDbEntity
  8
dimensions
  6
ByLayer
 62
  256
370
   -1
100
AcDbLeader
  3
Standard
 71
    1
 72
    0
 73
    3
 74
    0
 75
    0
 40
1
 41
10
 76
5
 76
5
 10
-60
 20
-260
 30
0
 10
-40
 20
-260
 30
0
 10
10
 20
-370
 30
0
 10
150
 20
-370
 30
0
 10
150
 20
-370
 30
0
  0
DIMENSION
  5
115
100
AcDbEntity
  8
dimensions
  6
ByLayer
 62
  256
370
   -1
100
AcDbDimension
  2
*D6
 10
-150
 20
-290
 30
0
 11
-154.6875
 21
-250
 31
0
 70
   32
 71
    5
 72
    0
  3
Standard
 53
0
210
0
220
0
230
1
100
AcDbAlignedDimension
 13
-140
 23
-210
 33
0
 14
-140
 24
-290
 34
0
 50
90
100
AcDbRotatedDimension
  0
LINE
  5
116
100
AcDbEntity
  8
out-part
  6
ByLayer
 62
  256
370
   -1
100
AcDbLine
 10
-90
 20
-280
 11
-20
 21
-280
  0
DIMENSION
  5
117
100
AcDbEntity
  8
dimensions
  6
ByLayer
 62
  256
370
   -1
100
AcDbDimension
  2
*D7
 10
-70
 20
-273.9999596666704
 30
0
 11
-74.6875
 21
-250
 31
0
 70
   32
 71
    5
 72
    0
  3
Standard
 53
0
210
0
220
0
230
1
100
AcDbAlignedDimension
 13
-90
 23
-230
 33
0
 14
-90
 24
-270
 34
0
 50
90
100
AcDbRotatedDimension
  0
LWPOLYLINE
  5
118
100
AcDbEntity
  8
0
  6
ByLayer
 62
  256
370
   -1
100
AcDbPolyline
 90
    4
 70
    1
 43
0
 10
-210
 20
-200
 10
-140
 20
-200
 10
-140
 20
-300
 10
-210
 20
-300
  0
LWPOLYLINE
  5
119
100
AcDbEntity
  8
0
  6
ByLayer
 62
  256
370
   -1
100
AcDbPolyline
 90
    4
 70
    1
 43
0
 10
-90
 20
-220
 10
-20
 20
-220
 10
-20
 20
-280
 10
-90
 20
-280
  0
LINE
  5
11A
100
AcDbEntity
  8
0
  6
ByLayer
 62
  256
370
   -1
100
AcDbLine
 10
-140
 20
-210
 11
-90
 21
-230
  0
LINE
  5
11B
100
AcDbEntity
  8
0
  6
ByLayer
 62
  256
370
   -1
100
AcDbLine
 10
-140
 20
-290
 11
-90
 21
-270
  0
LEADER
  5
11C
100
AcDbEntity
  8
0
  6
ByLayer
 62
  256
370
   -1
100
AcDbLeader
  3
Standard
 71
    1
 72
    0
 73
    3
 74
    0
 75
    0
 40
1
 41
10
 76
0
 76
0
  0
LINE
  5
11D
100
AcDbEntity
  8
auxiliary
  6
DASHDOT2
 62
  256
370
   -1
100
AcDbLine
 10
-210
 20
-250
 11
-20
 21
-250
  0
LINE
  5
11E
100
AcDbEntity
  8
out-part
  6
CONTINUOUS
 62
  256
370
   -1
100
AcDbLine
 10
-140
 20
-210
 11
-140
 21
-200
  0
LINE
  5
11F
100
AcDbEntity
  8
out-part
  6
CONTINUOUS
 62
  256
370
   -1
100
AcDbLine
 10
-210
 20
-190
 11
-130
 21
-190
  0
LINE
  5
120
100
AcDbEntity
  8
out-part
  6
CONTINUOUS
 62
  256
370
   -1
100
AcDbLine
 10
-130
 20
-190
 11
-80
 21
-210
  0
LINE
  5
121
100
AcDbEntity
  8
out-part
  6
CONTINUOUS
 62
  256
370
   -1
100
AcDbLine
 10
-80
 20
-210
 11
-20
 21
-210
  0
LINE
  5
122
100
AcDbEntity
  8
out-part
  6
CONTINUOUS
 62
  256
370
   -1
100
AcDbLine
 10
-20
 20
-210
 11
-20
 21
-220
  0
LINE
  5
123
100
AcDbEntity
  8
out-part
  6
CONTINUOUS
 62
  256
370
   -1
100
AcDbLine
 10
-20
 20
-220
 11
-90
 21
-220
  0
LINE
  5
124
100
AcDbEntity
  8
out-part
  6
CONTINUOUS
 62
  256
370
   -1
100
AcDbLine
 10
-90
 20
-220
 11
-90
 21
-230
  0
LINE
  5
125
100
AcDbEntity
  8
out-part
  6
CONTINUOUS
 62
  256
370
   -1
100
AcDbLine
 10
-90
 20
-230
 11
-140
 21
-210
  0
LINE
  5
126
100
AcDbEntity
  8
out-part
  6
CONTINUOUS
 62
  256
370
   -1
100
AcDbLine
 10
-140
 20
-200
 11
-210
 21
-200
  0
LINE
  5
127
100
AcDbEntity
  8
out-part
  6
CONTINUOUS
 62
  256
370
   -1
100
AcDbLine
 10
-210
 20
-200
 11
-210
 21
-190
  0
DIMENSION
  5
128
100
AcDbEntity
  8
auxiliary
  6
ByLayer
 62
  256
370
   -1
100
AcDbDimension
  2
*D9
 10
-80
 20
-180
 30
0
 11
-85
 21
-175.3125
 31
0
 70
   33
 71
    5
 72
    0
  3
Standard
 53
0
210
0
220
0
230
1
100
AcDbAlignedDimension
 13
-90
 23
-210
 33
0
 14
-80
 24
-210
 34
0
  0
DIMENSION
  5
129
100
AcDbEntity
  8
auxiliary
  6
ByLayer
 62
  256
370
   -1
100
AcDbDimension
  2
*D10
 10
-130
 20
-170
 30
0
 11
-135
 21
-165.3125
 31
0
 70
   32
 71
    5
 72
    0
  3
Standard
 53
0
210
0
220
0
230
1
100
AcDbAlignedDimension
 13
-140
 23
-190
 33
0
 14
-130
 24
-190
 34
0
100
AcDbRotatedDimension
  0
LEADER
  5
12A
100
AcDbEntity
  8
auxiliary
  6
ByLayer
 62
  256
370
   -1
100
AcDbLeader
  3
Standard
 71
    1
 72
    0
 73
    3
 74
    0
 75
    0
 40
1
 41
10
 76
4
 76
4
 10
-130
 20
-160
 30
0
 10
-110
 20
-140
 30
0
 10
0
 20
-140
 30
0
 10
0
 20
-140
 30
0
  0
LEADER
  5
12B
100
AcDbEntity
  8
auxiliary
  6
ByLayer
 62
  256
370
   -1
100
AcDbLeader
  3
Standard
 71
    1
 72
    0
 73
    3
 74
    0
 75
    0
 40
1
 41
10
 76
0
 76
0
  0
LEADER
  5
12C
100
AcDbEntity
  8
auxiliary
  6
ByLayer
 62
  256
370
   -1
100
AcDbLeader
  3
Standard
 71
    1
 72
    0
 73
    3
 74
    0
 75
    0
 40
1
 41
10
 76
2
 76
2
 10
-80
 20
-170
 30
0
 10
-50
 20
-140
 30
0
  0
DIMENSION
  5
12D
100
AcDbEntity
  8
auxiliary
  6
ByLayer
 62
  256
370
   -1
100
AcDbDimension
  2
*D14
 10
-210
 20
-130
 30
0
 11
-208.3145630368119
 21
-121.6854369631881
 31
0
 70
   33
 71
    5
  3
Standard
 53
0
210
0
220
0
230
1
100
AcDbAlignedDimension
 13
-130
 23
-190
 33
0
 14
-140
 24
-200
 34
0
  0
LINE
  5
12E
100
AcDbEntity
  8
auxiliary
  6
DASHED2
 62
  256
370
   -1
100
AcDbLine
 10
-140
 20
-200
 11
-140
 21
-70
  0
LINE
  5
12F
100
AcDbEntity
  8
auxiliary
  6
DASHED2
 62
  256
370
   -1
100
AcDbLine
 10
-140
 20
-200
 11
-20
 21
-80
  0
DIMENSION
  5
130
100
AcDbEntity
  8
dimensions
  6
DASHED2
 62
  256
370
   -1
100
AcDbDimension
  2
*D15
 10
-140
 20
-70
 30
0
 11
0
 21
0
 31
0
 70
   34
 71
    5
  3
Standard
 53
0
210
0
220
0
230
1
100
AcDb2LineAngularDimension
 13
-140
 23
-200
 33
0
 14
-20
 24
-80
 34
0
 15
-140
 25
-200
 35
0
 16
-80
 26
-110
 36
0
  0
LINE
  5
131
100
AcDbEntity
  8
triangle
  6
ByLayer
 62
    5
370
   -1
100
AcDbLine
 10
-140
 20
-210
 11
-90
 21
-210
  0
LINE
  5
132
100
AcDbEntity
  8
triangle
  6
ByLayer
 62
    5
370
   -1
100
AcDbLine
 10
-90
 20
-210
 11
-90
 21
-230
  0
LINE
  5
133
100
AcDbEntity
  8
triangle
  6
ByLayer
 62
    5
370
   -1
100
AcDbLine
 10
-90
 20
-230
 11
-140
 21
-210
  0
DIMENSION
  5
134
100
AcDbEntity
  8
dimensions
  6
ByLayer
 62
    5
370
   -1
100
AcDbDimension
  2
*D16
 10
50
 20
-230
 30
0
 11
45.3125
 21
-220
 31
0
 70
   33
 71
    5
  3
Standard
 53
0
210
0
220
0
230
1
100
AcDbAlignedDimension
 13
-90
 23
-210
 33
0
 14
-90
 24
-230
 34
0
  0
DIMENSION
  5
135
100
AcDbEntity
  8
dimensions
  6
DASHED2
 62
    5
370
   -1
100
AcDbDimension
  2
*D17
 10
-164.4827586206897
 20
-416.2068965517242
 30
0
 11
-187.7418648252798
 21
-401.8546620631994
 31
0
 70
   33
 71
    5
  3
Standard
 53
0
210
0
220
0
230
1
100
AcDbAlignedDimension
 13
-140
 23
-210
 33
0
 14
-90
 24
-230
 34
0
  0
DIMENSION
  5
136
100
AcDbEntity
  8
dimensions
  6
ByLayer
 62
  256
370
   -1
100
AcDbDimension
  2
*D18
 10
-139.999972142837
 20
-349.9999999999845
 30
0
 11
-174.999974754444
 21
-345.3125194999841
 31
0
 70
   33
 71
    5
  3
Standard
 53
0
210
0
220
0
230
1
100
AcDbAlignedDimension
 13
-210
 23
-300
 33
0
 14
-140
 24
-299.9999610000022
 34
0
  0
DIMENSION
  5
137
100
AcDbEntity
  8
dimensions
  6
ByLayer
 62
  256
370
   -1
100
AcDbDimension
  2
*D19
 10
-19.99999999911183
 20
-350.0000000001269
 30
0
 11
-54.99999999917135
 21
-345.3125000005709
 31
0
 70
   33
 71
    5
  3
Standard
 53
0
210
0
220
0
230
1
100
AcDbAlignedDimension
 13
-90
 23
-280
 33
0
 14
-20
 24
-279.9999999991118
 34
0
  0
DIMENSION
  5
138
100
AcDbEntity
  8
dimensions
  6
ByLayer
 62
  256
370
   -1
100
AcDbDimension
  2
*D20
 10
-90
 20
-370
 30
0
 11
-115
 21
-365.3125
 31
0
 70
   32
 71
    5
 72
    0
  3
Standard
 53
0
210
0
220
0
230
1
100
AcDbAlignedDimension
 13
-140
 23
-280
 33
0
 14
-90
 24
-280
 34
0
100
AcDbRotatedDimension
  0
MTEXT
  5
139
100
AcDbEntity
  8
auxiliary
  6
ByLayer
 62
  256
370
   -1
100
AcDbMText
 10
-250
 20
-70
 30
0
 40
30
 41
36.66666666666806
 71
    1
 72
    1
  1
a2
  7
standard
210
0
220
0
230
1
 50
0
 73
    2
 44
1
  0
MTEXT
  5
13A
100
AcDbEntity
  8
dimensions
  6
ByLayer
 62
  256
370
   -1
100
AcDbMText
 10
-100
 20
-40
 30
0
 40
30
 41
30.0000000000014
 71
    1
 72
    1
  1
b1
  7
standard
210
0
220
0
230
1
 50
0
 73
    2
 44
1
  0
MTEXT
  5
13B
100
AcDbEntity
  8
dimensions
  6
ByLayer
 62
  256
370
   -1
100
AcDbMText
 10
20
 20
-230
 30
0
 40
30
 41
86.66666666666853
 71
    1
 72
    1
  1
POD1
  7
standard
210
0
220
0
230
1
 50
0
 73
    2
 44
1
  0
MTEXT
  5
13C
100
AcDbEntity
  8
dimensions
  6
ByLayer
 62
  256
370
   -1
100
AcDbMText
 10
-190
 20
-360
 30
0
 40
30
 41
36.66666666666666
 71
    1
 72
    1
  1
X1
  7
standard
210
0
220
0
230
1
 50
0
 73
    2
 44
1
  0
MTEXT
  5
13D
100
AcDbEntity
  8
dimensions
  6
ByLayer
 62
  256
370
   -1
100
AcDbMText
 10
-60
 20
-360
 30
0
 40
30
 41
43.33333333333334
 71
    1
 72
    1
  1
X2
  7
standard
210
0
220
0
230
1
 50
0
 73
    2
 44
1
  0
MTEXT
  5
13E
100
AcDbEntity
  8
dimensions
  6
ByLayer
 62
  256
370
   -1
100
AcDbMText
 10
-130
 20
-380
 30
0
 40
30
 41
16.66666666666667
 71
    1
 72
    1
  1
N
  7
standard
210
0
220
0
230
1
 50
0
 73
    2
 44
1
  0
MTEXT
  5
13F
100
AcDbEntity
  8
dimensions
  6
ByLayer
 62
    5
370
   -1
100
AcDbMText
 10
-230
 20
-430
 30
0
 40
30
 41
36.66666666666993
 71
    1
 72
    1
  1
a3
  7
standard
210
0
220
0
230
1
 50
0
 73
    2
 44
1
  0
MTEXT
  5
140
100
AcDbEntity
  8
auxiliary
  6
ByLayer
 62
  256
370
   -1
100
AcDbMText
 10
-41.11111111111298
 20
-90
 30
0
 40
30
 41
30.0000000000014
 71
    1
 72
    1
  1
a1
  7
standard
210
0
220
0
230
1
 50
0
 73
    2
 44
1
  0
MTEXT
  5
141
100
AcDbEntity
  8
dimensions
  6
CONTINUOUS
 62
  256
370
   -1
100
AcDbMText
 10
-340
 20
-230
 30
0
 40
30
 41
70.00000000000186
 71
    1
 72
    1
  1
POD
  7
standard
210
0
220
0
230
1
 50
0
 73
    2
 44
1
  0
DIMENSION
  5
142
100
AcDbEntity
  8
dimensions
  6
ByLayer
 62
  256
370
   -1
100
AcDbDimension
  2
*D21
 10
-370
 20
-310
 30
0
 11
-374.6875
 21
-250
 31
0
 70
   33
 71
    5
 72
    0
  3
Standard
 53
0
210
0
220
0
230
1
100
AcDbAlignedDimension
 13
-210
 23
-190
 33
0
 14
-210
 24
-310
 34
0
  0
MTEXT
  5
143
100
AcDbEntity
  8
dimensions
  6
CONTINUOUS
 62
  256
370
   -1
100
AcDbMText
 10
-420
 20
-220
 30
0
 40
30
 41
20
 71
    1
 72
    1
  1
M
  7
standard
210
0
220
0
230
1
 50
0
 73
    2
 44
1
  0
MTEXT
  5
144
100
AcDbEntity
  8
dimensions
  6
CONTINUOUS
 62
  256
370
   -1
100
AcDbMText
 10
-346.6666666666667
 20
-330
 30
0
 40
30
 41
53.3333333333352
 71
    1
 72
    1
  1
PID
  7
standard
210
0
220
0
230
1
 50
0
 73
    2
 44
1
  0
MTEXT
  5
145
100
AcDbEntity
  8
dimensions
  6
ByLayer
 62
  256
370
   -1
100
AcDbMText
 10
33.33333333333333
 20
-330
 30
0
 40
30
 41
70.00000000000185
 71
    1
 72
    1
  1
PID1
  7
standard
210
0
220
0
230
1
 50
0
 73
    2
 44
1
  0
DIMENSION
  5
146
100
AcDbEntity
  8
dimensions
  6
ByLayer
 62
  256
370
   -1
100
AcDbDimension
  2
*D22
 10
140
 20
-290
 30
0
 11
135.3125
 21
-250
 31
0
 70
   33
 71
    5
 72
    0
  3
Standard
 53
0
210
0
220
0
230
1
100
AcDbAlignedDimension
 13
-20
 23
-210
 33
0
 14
-20
 24
-290
 34
0
  0
MTEXT
  5
147
100
AcDbEntity
  8
dimensions
  6
CONTINUOUS
 62
  256
370
   -1
100
AcDbMText
 10
160
 20
-230
 30
0
 40
30
 41
36.66666666666666
 71
    1
 72
    1
  1
M1
  7
standard
210
0
220
0
230
1
 50
0
 73
    2
 44
1
  0
MTEXT
  5
148
100
AcDbEntity
  8
dimensions
  6
ByLayer
 62
    5
370
   -1
100
AcDbMText
 10
60
 20
-180
 30
0
 40
30
 41
40.00000000000139
 71
    1
 72
    1
  1
a4
  7
standard
210
0
220
0
230
1
 50
0
 73
    2
 44
1
  0
ENDSEC
  0
SECTION
  2
OBJECTS
  0
DICTIONARY
  5
C
330
0
100
AcDbDictionary
281
    1
  3
ACAD_GROUP
350
D
  0
DICTIONARY
  5
D
330
C
100
AcDbDictionary
281
    1
  0
ENDSEC
  0
EOF
